<svg width="25" height="25" viewBox="0 0 25 25" fill="none" xmlns="http://www.w3.org/2000/svg">
<g clip-path="url(#clip0_281_1732)">
<path d="M17.472 4.21359L12.5002 9.18544L7.52834 4.21359C6.91826 3.60351 5.92872 3.60351 5.31863 4.21359L4.21378 5.31845C3.60369 5.92853 3.60369 6.91807 4.21378 7.52816L9.18562 12.5L4.21378 17.4718C3.60369 18.0819 3.60369 19.0715 4.21378 19.6816L5.31863 20.7864C5.92872 21.3965 6.91826 21.3965 7.52834 20.7864L12.5002 15.8146L17.472 20.7864C18.0821 21.3965 19.0717 21.3965 19.6817 20.7864L20.7866 19.6816C21.3967 19.0715 21.3967 18.0819 20.7866 17.4718L15.8148 12.5L20.7866 7.52816C21.3967 6.91807 21.3967 5.92853 20.7866 5.31845L19.6817 4.21359C19.0717 3.60351 18.0821 3.60351 17.472 4.21359Z" fill="#CCCCCC"/>
</g>
<defs>
<clipPath id="clip0_281_1732">
<rect width="25" height="25" fill="white"/>
</clipPath>
</defs>
</svg>
