<svg width="432" height="134" viewBox="0 0 432 134" fill="none" xmlns="http://www.w3.org/2000/svg">
<path d="M21.1578 88.5C14.6245 88.5 9.52448 86.6667 5.85781 83C2.25781 79.2667 0.457813 74.3667 0.457813 68.3C0.457813 62.9 1.52448 58.1667 3.65781 54.1C5.79115 50.0333 8.55781 46.9 11.9578 44.7C15.3578 42.5 18.9245 41.4 22.6578 41.4C26.3245 41.4 29.1578 42.5 31.1578 44.7C33.2245 46.8333 34.2578 49.6 34.2578 53C34.2578 55.8 33.6245 58.1667 32.3578 60.1C31.1578 62.0333 29.5578 63 27.5578 63C26.2911 63 25.2578 62.7 24.4578 62.1C23.7245 61.5 23.3578 60.6667 23.3578 59.6C23.3578 59.1333 23.4245 58.6 23.5578 58C23.6911 57.4 23.7911 56.9667 23.8578 56.7C24.1911 55.7 24.3578 54.7667 24.3578 53.9C24.3578 53.0333 24.1245 52.3667 23.6578 51.9C23.2578 51.4333 22.6578 51.2 21.8578 51.2C20.3245 51.2 18.8911 51.9 17.5578 53.3C16.2245 54.6333 15.1578 56.4667 14.3578 58.8C13.5578 61.1333 13.1578 63.7 13.1578 66.5C13.1578 74.2333 16.5245 78.1 23.2578 78.1C25.9911 78.1 28.9245 77.2 32.0578 75.4C35.2578 73.5333 38.3911 70.7667 41.4578 67.1C42.2578 66.1667 43.1578 65.7 44.1578 65.7C45.0245 65.7 45.6911 66.1 46.1578 66.9C46.6911 67.7 46.9578 68.8 46.9578 70.2C46.9578 72.7333 46.3245 74.8 45.0578 76.4C41.9245 80.2667 38.1578 83.2667 33.7578 85.4C29.4245 87.4667 25.2245 88.5 21.1578 88.5ZM89.8742 57.3C90.7409 57.3 91.4076 57.7333 91.8742 58.6C92.3409 59.4667 92.5742 60.5667 92.5742 61.9C92.5742 65.1 91.6076 67 89.6742 67.6C85.6742 69 81.2742 69.8 76.4742 70C75.2076 75.6 72.7076 80.1 68.9742 83.5C65.2409 86.8333 61.0076 88.5 56.2742 88.5C52.2742 88.5 48.8409 87.5333 45.9742 85.6C43.1742 83.6667 41.0409 81.1 39.5742 77.9C38.1076 74.7 37.3742 71.2333 37.3742 67.5C37.3742 62.4333 38.3409 57.9333 40.2742 54C42.2076 50 44.8742 46.9 48.2742 44.7C51.6742 42.4333 55.4409 41.3 59.5742 41.3C64.6409 41.3 68.7076 43.0667 71.7742 46.6C74.9076 50.0667 76.7409 54.3667 77.2742 59.5C80.4076 59.3 84.1409 58.6333 88.4742 57.5C89.0076 57.3667 89.4742 57.3 89.8742 57.3ZM57.0742 77.9C59.2076 77.9 61.0409 77.0333 62.5742 75.3C64.1742 73.5667 65.2409 71.0667 65.7742 67.8C63.7076 66.4 62.1076 64.5667 60.9742 62.3C59.9076 60.0333 59.3742 57.6333 59.3742 55.1C59.3742 54.0333 59.4742 52.9667 59.6742 51.9H59.1742C56.5076 51.9 54.2742 53.2 52.4742 55.8C50.7409 58.3333 49.8742 61.9333 49.8742 66.6C49.8742 70.2667 50.5742 73.0667 51.9742 75C53.4409 76.9333 55.1409 77.9 57.0742 77.9ZM91.0914 88.5C88.5581 88.5 86.7581 87.1667 85.6914 84.5C84.6914 81.8333 84.1914 77.5667 84.1914 71.7C84.1914 63.0333 85.4247 54.8 87.8914 47C88.4914 45.0667 89.4581 43.6667 90.7914 42.8C92.1914 41.8667 94.1247 41.4 96.5914 41.4C97.9247 41.4 98.8581 41.5667 99.3914 41.9C99.9247 42.2333 100.191 42.8667 100.191 43.8C100.191 44.8667 99.6914 47.2667 98.6914 51C98.0247 53.6667 97.4914 56 97.0914 58C96.6914 59.9333 96.3581 62.3667 96.0914 65.3C97.8914 60.1 100.025 55.7 102.491 52.1C105.025 48.5 107.591 45.8333 110.191 44.1C112.858 42.3 115.358 41.4 117.691 41.4C120.025 41.4 121.658 41.9333 122.591 43C123.591 44.0667 124.091 45.7 124.091 47.9C124.091 50.0333 123.458 53.9 122.191 59.5C121.658 61.9 121.291 63.7 121.091 64.9C124.425 56.7 128.125 50.7333 132.191 47C136.258 43.2667 140.058 41.4 143.591 41.4C147.925 41.4 150.091 43.5667 150.091 47.9C150.091 50.5 149.358 55.2 147.891 62C146.625 67.8 145.991 71.6333 145.991 73.5C145.991 76.1667 146.958 77.5 148.891 77.5C150.225 77.5 151.791 76.7 153.591 75.1C155.458 73.4333 157.925 70.7667 160.991 67.1C161.791 66.1667 162.691 65.7 163.691 65.7C164.558 65.7 165.225 66.1 165.691 66.9C166.225 67.7 166.491 68.8 166.491 70.2C166.491 72.8667 165.858 74.9333 164.591 76.4C161.725 79.9333 158.625 82.8333 155.291 85.1C152.025 87.3667 148.291 88.5 144.091 88.5C140.691 88.5 138.125 87.5333 136.391 85.6C134.658 83.6 133.791 80.7333 133.791 77C133.791 75.1333 134.258 71.8 135.191 67C136.058 62.8 136.491 59.9 136.491 58.3C136.491 57.2333 136.125 56.7 135.391 56.7C134.525 56.7 133.291 57.8333 131.691 60.1C130.091 62.3 128.491 65.2333 126.891 68.9C125.291 72.5667 123.991 76.4333 122.991 80.5C122.258 83.7 121.391 85.8333 120.391 86.9C119.458 87.9667 117.925 88.5 115.791 88.5C113.591 88.5 111.925 87.4667 110.791 85.4C109.725 83.2667 109.191 80.7 109.191 77.7C109.191 75.1667 109.525 71.5 110.191 66.7C110.725 62.4333 110.991 59.6333 110.991 58.3C110.991 57.2333 110.625 56.7 109.891 56.7C108.891 56.7 107.625 57.9 106.091 60.3C104.558 62.7 103.058 65.7667 101.591 69.5C100.191 73.2333 99.0581 76.9 98.1914 80.5C97.4581 83.6333 96.5914 85.7667 95.5914 86.9C94.6581 87.9667 93.1581 88.5 91.0914 88.5ZM211.805 65.7C212.672 65.7 213.339 66.1 213.805 66.9C214.339 67.7 214.605 68.8 214.605 70.2C214.605 72.8667 213.972 74.9333 212.705 76.4C209.839 79.9333 206.739 82.8333 203.405 85.1C200.139 87.3667 196.405 88.5 192.205 88.5C188.672 88.5 185.805 87.2333 183.605 84.7C179.805 87.1667 175.839 88.4333 171.705 88.5C170.839 101.367 168.872 112.1 165.805 120.7C162.739 129.367 158.239 133.7 152.305 133.7C148.705 133.7 146.039 132.4 144.305 129.8C142.572 127.2 141.705 123.6 141.705 119C141.705 112.467 143.205 104.833 146.205 96.1C149.205 87.4333 153.839 77.8667 160.105 67.4C160.105 57.6667 160.039 50.9 159.905 47.1C159.839 45.1667 160.605 43.6333 162.205 42.5C163.805 41.3667 165.805 40.8 168.205 40.8C169.605 40.8 170.605 41.1 171.205 41.7C171.872 42.2333 172.239 43.3333 172.305 45C172.305 46.6667 172.339 47.9 172.405 48.7C174.539 46.0333 176.639 44.1333 178.705 43C180.772 41.8 182.972 41.2 185.305 41.2C189.039 41.2 192.072 42.7 194.405 45.7C196.805 48.7 198.005 52.6333 198.005 57.5C198.005 61.0333 197.439 64.4667 196.305 67.8C195.172 71.1333 193.605 74.1667 191.605 76.9C193.005 77.3 194.172 77.5 195.105 77.5C197.305 77.5 199.405 76.7 201.405 75.1C203.405 73.5 205.972 70.8333 209.105 67.1C209.905 66.1667 210.805 65.7 211.805 65.7ZM172.205 78.9C174.605 78.3667 176.805 77.0667 178.805 75C180.872 72.8667 182.505 70.2667 183.705 67.2C184.905 64.0667 185.505 60.8 185.505 57.4C185.505 55.4 185.105 53.9 184.305 52.9C183.505 51.8333 182.439 51.3 181.105 51.3C178.705 51.3 175.805 53.8333 172.405 58.9C172.339 61.8333 172.305 66.1333 172.305 71.8C172.305 74.8667 172.272 77.2333 172.205 78.9ZM153.105 123.9C154.905 123.9 156.405 119.967 157.605 112.1C158.805 104.3 159.572 94.5667 159.905 82.9C157.039 89.5667 154.772 95.9333 153.105 102C151.439 108.067 150.605 113.167 150.605 117.3C150.605 119.433 150.872 121.067 151.405 122.2C151.872 123.333 152.439 123.9 153.105 123.9ZM251.15 65.7C252.017 65.7 252.683 66.1 253.15 66.9C253.683 67.7 253.95 68.8 253.95 70.2C253.95 72.8667 253.317 74.9333 252.05 76.4C249.583 79.4 246.083 82.1667 241.55 84.7C237.083 87.2333 232.283 88.5 227.15 88.5C220.15 88.5 214.717 86.6 210.85 82.8C206.983 79 205.05 73.8 205.05 67.2C205.05 62.6 206.017 58.3333 207.95 54.4C209.883 50.4 212.55 47.2333 215.95 44.9C219.417 42.5667 223.317 41.4 227.65 41.4C231.517 41.4 234.617 42.5667 236.95 44.9C239.283 47.1667 240.45 50.2667 240.45 54.2C240.45 58.8 238.783 62.7667 235.45 66.1C232.183 69.3667 226.617 71.9667 218.75 73.9C220.417 76.9667 223.583 78.5 228.25 78.5C231.25 78.5 234.65 77.4667 238.45 75.4C242.317 73.2667 245.65 70.5 248.45 67.1C249.25 66.1667 250.15 65.7 251.15 65.7ZM225.95 51.2C223.483 51.2 221.383 52.6333 219.65 55.5C217.983 58.3667 217.15 61.8333 217.15 65.9V66.1C221.083 65.1667 224.183 63.7667 226.45 61.9C228.717 60.0333 229.85 57.8667 229.85 55.4C229.85 54.1333 229.483 53.1333 228.75 52.4C228.083 51.6 227.15 51.2 225.95 51.2ZM290.408 65.7C291.274 65.7 291.941 66.1 292.408 66.9C292.941 67.7 293.208 68.8 293.208 70.2C293.208 72.8667 292.574 74.9333 291.308 76.4C288.441 79.9333 285.308 82.8333 281.908 85.1C278.508 87.3667 274.608 88.5 270.208 88.5C256.608 88.5 249.808 78.9333 249.808 59.8C249.808 56.8667 249.908 53.9 250.108 50.9H246.208C244.208 50.9 242.841 50.5333 242.108 49.8C241.441 49.0667 241.108 47.9 241.108 46.3C241.108 42.5667 242.608 40.7 245.608 40.7H251.308C252.441 33.3667 254.174 26.6667 256.508 20.6C258.841 14.5333 261.641 9.69999 264.908 6.09999C268.241 2.5 271.808 0.699997 275.608 0.699997C278.408 0.699997 280.608 1.93333 282.208 4.4C283.808 6.86666 284.608 9.96666 284.608 13.7C284.608 24.0333 280.274 33.0333 271.608 40.7H282.808C283.874 40.7 284.641 40.9333 285.108 41.4C285.574 41.8667 285.808 42.7333 285.808 44C285.808 48.6 282.041 50.9 274.508 50.9H262.308C262.174 54.2333 262.108 56.8333 262.108 58.7C262.108 65.6333 262.908 70.5 264.508 73.3C266.174 76.1 268.774 77.5 272.308 77.5C275.174 77.5 277.708 76.6333 279.908 74.9C282.108 73.1667 284.708 70.5667 287.708 67.1C288.508 66.1667 289.408 65.7 290.408 65.7ZM272.908 10.3C271.908 10.3 270.774 11.5667 269.508 14.1C268.308 16.5667 267.141 20.0333 266.008 24.5C264.941 28.9 264.041 33.8 263.308 39.2C267.241 35.8 270.174 32 272.108 27.8C274.108 23.5333 275.108 19.6667 275.108 16.2C275.108 12.2667 274.374 10.3 272.908 10.3ZM298.166 34.8C295.366 34.8 293.266 34.1667 291.866 32.9C290.466 31.5667 289.766 29.7333 289.766 27.4C289.766 25.0667 290.666 23.1333 292.466 21.6C294.332 20 296.632 19.2 299.366 19.2C301.832 19.2 303.832 19.8 305.366 21C306.899 22.2 307.666 23.9 307.666 26.1C307.666 28.7667 306.799 30.9 305.066 32.5C303.332 34.0333 301.032 34.8 298.166 34.8ZM297.366 88.5C293.032 88.5 289.866 86.9667 287.866 83.9C285.932 80.8333 284.966 76.7667 284.966 71.7C284.966 68.7 285.332 64.8667 286.066 60.2C286.866 55.4667 287.866 51.0667 289.066 47C289.666 44.8667 290.466 43.4 291.466 42.6C292.466 41.8 294.066 41.4 296.266 41.4C299.666 41.4 301.366 42.5333 301.366 44.8C301.366 46.4667 300.732 50.3333 299.466 56.4C297.866 63.7333 297.066 68.7 297.066 71.3C297.066 73.3 297.332 74.8333 297.866 75.9C298.399 76.9667 299.299 77.5 300.566 77.5C301.766 77.5 303.266 76.6667 305.066 75C306.866 73.3333 309.266 70.7 312.266 67.1C313.066 66.1667 313.966 65.7 314.966 65.7C315.832 65.7 316.499 66.1 316.966 66.9C317.499 67.7 317.766 68.8 317.766 70.2C317.766 72.8667 317.132 74.9333 315.866 76.4C309.266 84.4667 303.099 88.5 297.366 88.5ZM351.775 65.7C352.642 65.7 353.308 66.1 353.775 66.9C354.308 67.7 354.575 68.8 354.575 70.2C354.575 72.7333 353.942 74.8 352.675 76.4C350.408 79.2 347.775 81.5667 344.775 83.5C341.842 85.3667 338.775 86.7333 335.575 87.6C338.175 89.8 339.475 92.8 339.475 96.6C339.475 99.7333 338.708 102.533 337.175 105C335.708 107.533 333.542 109.5 330.675 110.9C327.875 112.3 324.575 113 320.775 113C318.242 113 316.175 112.833 314.575 112.5C311.975 112.033 310.675 110.567 310.675 108.1C310.675 105.1 312.008 103.6 314.675 103.6C315.208 103.6 315.642 103.633 315.975 103.7C317.775 103.967 319.542 104.1 321.275 104.1C323.942 104.1 326.008 103.533 327.475 102.4C329.008 101.333 329.775 99.6667 329.775 97.4C329.775 95.7333 329.042 94.4 327.575 93.4C326.175 92.4667 324.242 92 321.775 92C320.042 92 318.708 91.7667 317.775 91.3C316.842 90.8333 316.375 90.0333 316.375 88.9C316.375 88.5 316.408 88.2 316.475 88C316.675 87 316.975 86.2667 317.375 85.8C314.375 84.2 312.075 81.8667 310.475 78.8C308.875 75.7333 308.075 72.2333 308.075 68.3C308.075 62.9 309.142 58.1667 311.275 54.1C313.408 50.0333 316.175 46.9 319.575 44.7C322.975 42.5 326.542 41.4 330.275 41.4C333.942 41.4 336.775 42.5 338.775 44.7C340.842 46.8333 341.875 49.6 341.875 53C341.875 55.8 341.242 58.1667 339.975 60.1C338.775 62.0333 337.175 63 335.175 63C333.908 63 332.875 62.7 332.075 62.1C331.342 61.5 330.975 60.6667 330.975 59.6C330.975 59.1333 331.042 58.6 331.175 58C331.308 57.4 331.408 56.9667 331.475 56.7C331.808 55.7 331.975 54.7667 331.975 53.9C331.975 53.0333 331.742 52.3667 331.275 51.9C330.875 51.4333 330.275 51.2 329.475 51.2C327.942 51.2 326.508 51.9 325.175 53.3C323.842 54.6333 322.775 56.4667 321.975 58.8C321.175 61.1333 320.775 63.7 320.775 66.5C320.775 74.2333 324.142 78.1 330.875 78.1C333.608 78.1 336.542 77.2 339.675 75.4C342.875 73.5333 346.008 70.7667 349.075 67.1C349.875 66.1667 350.775 65.7 351.775 65.7ZM357.815 88.5C353.682 88.5 350.382 87 347.915 84C345.448 81 344.215 77.0667 344.215 72.2C344.215 66.8667 345.448 61.8333 347.915 57.1C350.382 52.3 353.648 48.4667 357.715 45.6C361.848 42.6667 366.215 41.2 370.815 41.2C372.282 41.2 373.248 41.5 373.715 42.1C374.248 42.6333 374.682 43.6333 375.015 45.1C376.415 44.8333 377.882 44.7 379.415 44.7C382.682 44.7 384.315 45.8667 384.315 48.2C384.315 49.6 383.815 52.9333 382.815 58.2C381.282 65.8667 380.515 71.2 380.515 74.2C380.515 75.2 380.748 76 381.215 76.6C381.748 77.2 382.415 77.5 383.215 77.5C384.482 77.5 386.015 76.7 387.815 75.1C389.615 73.4333 392.048 70.7667 395.115 67.1C395.915 66.1667 396.815 65.7 397.815 65.7C398.682 65.7 399.348 66.1 399.815 66.9C400.348 67.7 400.615 68.8 400.615 70.2C400.615 72.8667 399.982 74.9333 398.715 76.4C395.982 79.8 393.082 82.6667 390.015 85C386.948 87.3333 383.982 88.5 381.115 88.5C378.915 88.5 376.882 87.7667 375.015 86.3C373.215 84.7667 371.848 82.7 370.915 80.1C367.448 85.7 363.082 88.5 357.815 88.5ZM361.415 78.4C362.882 78.4 364.282 77.5333 365.615 75.8C366.948 74.0667 367.915 71.7667 368.515 68.9L372.215 50.5C369.415 50.5667 366.815 51.6333 364.415 53.7C362.082 55.7 360.215 58.3667 358.815 61.7C357.415 65.0333 356.715 68.5667 356.715 72.3C356.715 74.3667 357.115 75.9 357.915 76.9C358.782 77.9 359.948 78.4 361.415 78.4ZM381.715 34.8C380.648 34.8 379.648 34.6333 378.715 34.3C377.782 33.9 376.582 33.2 375.115 32.2L364.415 24.8L360.015 31.1C358.948 32.5667 357.448 33.3 355.515 33.3C354.315 33.3 353.282 32.9667 352.415 32.3C351.615 31.5667 351.215 30.6 351.215 29.4C351.215 27.8667 352.448 25.3 354.915 21.7C356.448 19.5 357.948 17.9 359.415 16.9C360.882 15.8333 362.482 15.3 364.215 15.3C365.348 15.3 366.348 15.4667 367.215 15.8C368.148 16.1333 369.348 16.8333 370.815 17.9L381.515 25.3L385.915 19C386.982 17.5333 388.482 16.8 390.415 16.8C391.615 16.8 392.615 17.1667 393.415 17.9C394.282 18.5667 394.715 19.5 394.715 20.7C394.715 21.6333 394.382 22.7 393.715 23.9C393.115 25.0333 392.215 26.5333 391.015 28.4C389.482 30.6 387.982 32.2333 386.515 33.3C385.048 34.3 383.448 34.8 381.715 34.8ZM409.388 88.5C405.454 88.5 402.088 87.5333 399.288 85.6C396.554 83.6 394.488 81 393.088 77.8C391.688 74.6 390.987 71.1667 390.987 67.5C390.987 62.4333 391.921 57.9333 393.788 54C395.721 50 398.321 46.9 401.588 44.7C404.854 42.4333 408.521 41.3 412.588 41.3C416.521 41.3 419.888 42.3 422.688 44.3C425.488 46.2333 427.588 48.8 428.988 52C430.388 55.2 431.088 58.6333 431.088 62.3C431.088 67.3667 430.121 71.9 428.188 75.9C426.254 79.8333 423.621 82.9333 420.288 85.2C417.021 87.4 413.388 88.5 409.388 88.5ZM410.488 77.7C412.754 77.7 414.654 76.4667 416.188 74C417.788 71.5333 418.588 67.9333 418.588 63.2C418.588 59.5333 417.921 56.7667 416.588 54.9C415.254 53.0333 413.654 52.1 411.788 52.1C409.388 52.1 407.388 53.3333 405.788 55.8C404.254 58.2 403.488 61.8 403.488 66.6C403.488 70.4 404.154 73.2 405.488 75C406.821 76.8 408.488 77.7 410.488 77.7Z" fill="url(#paint0_linear_1612_253)"/>
<defs>
<linearGradient id="paint0_linear_1612_253" x1="-3" y1="45" x2="433" y2="45" gradientUnits="userSpaceOnUse">
<stop stop-color="#FF50A4"/>
<stop offset="1" stop-color="#FFDAEC"/>
</linearGradient>
</defs>
</svg>
