<svg width="340" height="85" viewBox="0 0 340 85" fill="none" xmlns="http://www.w3.org/2000/svg">
<path d="M46.4 61.7C47.2667 61.7 47.9333 62.1 48.4 62.9C48.9333 63.7 49.2 64.8 49.2 66.2C49.2 68.8667 48.5667 70.9333 47.3 72.4C44.8333 75.4 41.3333 78.1667 36.8 80.7C32.3333 83.2333 27.5333 84.5 22.4 84.5C15.4 84.5 9.96667 82.6 6.1 78.8C2.23333 75 0.3 69.8 0.3 63.2C0.3 58.6 1.26667 54.3333 3.2 50.4C5.13333 46.4 7.8 43.2333 11.2 40.9C14.6667 38.5667 18.5667 37.4 22.9 37.4C26.7667 37.4 29.8667 38.5667 32.2 40.9C34.5333 43.1667 35.7 46.2667 35.7 50.2C35.7 54.8 34.0333 58.7667 30.7 62.1C27.4333 65.3667 21.8667 67.9667 14 69.9C15.6667 72.9667 18.8333 74.5 23.5 74.5C26.5 74.5 29.9 73.4667 33.7 71.4C37.5667 69.2667 40.9 66.5 43.7 63.1C44.5 62.1667 45.4 61.7 46.4 61.7ZM21.2 47.2C18.7333 47.2 16.6333 48.6333 14.9 51.5C13.2333 54.3667 12.4 57.8333 12.4 61.9V62.1C16.3333 61.1667 19.4333 59.7667 21.7 57.9C23.9667 56.0333 25.1 53.8667 25.1 51.4C25.1 50.1333 24.7333 49.1333 24 48.4C23.3333 47.6 22.4 47.2 21.2 47.2ZM98.7695 61.7C99.6362 61.7 100.303 62.1 100.77 62.9C101.303 63.7 101.57 64.8 101.57 66.2C101.57 68.8667 100.936 70.9333 99.6695 72.4C96.7362 75.8667 93.5029 78.7667 89.9695 81.1C86.5029 83.3667 82.5695 84.5 78.1695 84.5C74.7695 84.5 71.7362 83.8667 69.0695 82.6C66.4695 81.3333 64.4029 79.5333 62.8695 77.2C59.0695 82 54.5695 84.4 49.3695 84.4C45.7029 84.4 42.8029 83.3333 40.6695 81.2C38.5362 79.0667 37.4695 76.2333 37.4695 72.7C37.4695 69.3667 38.2362 66.6667 39.7695 64.6C41.3029 62.5333 43.4695 61.5 46.2695 61.5C48.6695 61.5 49.8695 62.4 49.8695 64.2C49.8695 64.6667 49.8029 65.5 49.6695 66.7C49.4695 69.1 49.3695 70.4667 49.3695 70.8C49.3695 72.8 50.2362 73.8 51.9695 73.8C53.2362 73.8 54.4362 73.0667 55.5695 71.6C56.7695 70.0667 57.7362 68 58.4695 65.4C59.2695 62.8 59.6695 59.9333 59.6695 56.8C59.6695 54.4 59.3695 52.4 58.7695 50.8C58.1695 49.1333 57.4362 48.3 56.5695 48.3C55.8362 48.3 55.3029 48.5 54.9695 48.9C54.6362 49.2333 54.3029 49.8333 53.9695 50.7C53.5695 51.7667 53.0362 52.6333 52.3695 53.3C51.7029 53.9 50.5362 54.2 48.8695 54.2C47.4029 54.2 46.2362 53.7 45.3695 52.7C44.5029 51.6333 44.0695 50.0333 44.0695 47.9C44.0695 44.5 45.1029 41.8333 47.1695 39.9C49.2362 37.9667 51.9029 37 55.1695 37C57.9695 37 60.5029 37.7 62.7695 39.1C65.0362 40.4333 66.7695 42.4 67.9695 45C69.9695 42.3333 72.2029 40.3333 74.6695 39C77.2029 37.6667 79.6695 37 82.0695 37C84.6695 37 86.6362 37.6 87.9695 38.8C89.3695 40 90.0695 41.9333 90.0695 44.6C90.0695 47.6 89.5029 49.9667 88.3695 51.7C87.2362 53.3667 85.8695 54.2 84.2695 54.2C82.8029 54.2 81.8029 53.9 81.2695 53.3C80.7362 52.7 80.3362 51.8333 80.0695 50.7C79.9362 49.9 79.7362 49.3 79.4695 48.9C79.2029 48.5 78.7362 48.3 78.0695 48.3C77.2695 48.3 76.4029 49.0667 75.4695 50.6C74.6029 52.0667 73.8362 54.0333 73.1695 56.5C72.5695 58.9667 72.2695 61.5333 72.2695 64.2C72.2695 67.3333 73.0029 69.7667 74.4695 71.5C76.0029 73.1667 78.0695 74 80.6695 74C83.2695 74 85.7029 73.1333 87.9695 71.4C90.3029 69.6 93.0029 66.8333 96.0695 63.1C96.8695 62.1667 97.7695 61.7 98.7695 61.7ZM138.099 61.7C138.966 61.7 139.633 62.1 140.099 62.9C140.633 63.7 140.899 64.8 140.899 66.2C140.899 68.8667 140.266 70.9333 138.999 72.4C136.533 75.4 133.033 78.1667 128.499 80.7C124.033 83.2333 119.233 84.5 114.099 84.5C107.099 84.5 101.666 82.6 97.7992 78.8C93.9326 75 91.9992 69.8 91.9992 63.2C91.9992 58.6 92.9659 54.3333 94.8992 50.4C96.8326 46.4 99.4992 43.2333 102.899 40.9C106.366 38.5667 110.266 37.4 114.599 37.4C118.466 37.4 121.566 38.5667 123.899 40.9C126.233 43.1667 127.399 46.2667 127.399 50.2C127.399 54.8 125.733 58.7667 122.399 62.1C119.133 65.3667 113.566 67.9667 105.699 69.9C107.366 72.9667 110.533 74.5 115.199 74.5C118.199 74.5 121.599 73.4667 125.399 71.4C129.266 69.2667 132.599 66.5 135.399 63.1C136.199 62.1667 137.099 61.7 138.099 61.7ZM112.899 47.2C110.433 47.2 108.333 48.6333 106.599 51.5C104.933 54.3667 104.099 57.8333 104.099 61.9V62.1C108.033 61.1667 111.133 59.7667 113.399 57.9C115.666 56.0333 116.799 53.8667 116.799 51.4C116.799 50.1333 116.433 49.1333 115.699 48.4C115.033 47.6 114.099 47.2 112.899 47.2ZM139.857 84.5C137.324 84.5 135.524 83.1667 134.457 80.5C133.457 77.8333 132.957 73.5667 132.957 67.7C132.957 59.0333 134.19 50.8 136.657 43C137.257 41.0667 138.224 39.6667 139.557 38.8C140.957 37.8667 142.89 37.4 145.357 37.4C146.69 37.4 147.624 37.5667 148.157 37.9C148.69 38.2333 148.957 38.8667 148.957 39.8C148.957 40.8667 148.457 43.2667 147.457 47C146.79 49.6667 146.257 52 145.857 54C145.457 56 145.124 58.4667 144.857 61.4C147.057 55.6667 149.524 51 152.257 47.4C154.99 43.8 157.657 41.2333 160.257 39.7C162.924 38.1667 165.357 37.4 167.557 37.4C171.89 37.4 174.057 39.5667 174.057 43.9C174.057 44.7667 173.757 46.8667 173.157 50.2C172.624 52.8667 172.357 54.5333 172.357 55.2C172.357 57.5333 173.19 58.7 174.857 58.7C176.724 58.7 179.124 57.2333 182.057 54.3C182.924 53.4333 183.824 53 184.757 53C185.624 53 186.29 53.4 186.757 54.2C187.29 54.9333 187.557 55.9333 187.557 57.2C187.557 59.6667 186.89 61.6 185.557 63C183.69 64.9333 181.49 66.6 178.957 68C176.49 69.3333 173.857 70 171.057 70C167.524 70 164.824 69.1 162.957 67.3C161.157 65.5 160.257 63.0667 160.257 60C160.257 59 160.357 58 160.557 57C160.69 55.6667 160.757 54.7667 160.757 54.3C160.757 53.2333 160.39 52.7 159.657 52.7C158.657 52.7 157.324 53.8333 155.657 56.1C154.057 58.3 152.457 61.2333 150.857 64.9C149.257 68.5667 147.957 72.4333 146.957 76.5C146.224 79.6333 145.357 81.7667 144.357 82.9C143.424 83.9667 141.924 84.5 139.857 84.5ZM197.365 84.5C190.832 84.5 185.732 82.6667 182.065 79C178.465 75.2667 176.665 70.3667 176.665 64.3C176.665 58.9 177.732 54.1667 179.865 50.1C181.998 46.0333 184.765 42.9 188.165 40.7C191.565 38.5 195.132 37.4 198.865 37.4C202.532 37.4 205.365 38.5 207.365 40.7C209.432 42.8333 210.465 45.6 210.465 49C210.465 51.8 209.832 54.1667 208.565 56.1C207.365 58.0333 205.765 59 203.765 59C202.498 59 201.465 58.7 200.665 58.1C199.932 57.5 199.565 56.6667 199.565 55.6C199.565 55.1333 199.632 54.6 199.765 54C199.898 53.4 199.998 52.9667 200.065 52.7C200.398 51.7 200.565 50.7667 200.565 49.9C200.565 49.0333 200.332 48.3667 199.865 47.9C199.465 47.4333 198.865 47.2 198.065 47.2C196.532 47.2 195.098 47.9 193.765 49.3C192.432 50.6333 191.365 52.4667 190.565 54.8C189.765 57.1333 189.365 59.7 189.365 62.5C189.365 70.2333 192.732 74.1 199.465 74.1C202.198 74.1 205.132 73.2 208.265 71.4C211.465 69.5333 214.598 66.7667 217.665 63.1C218.465 62.1667 219.365 61.7 220.365 61.7C221.232 61.7 221.898 62.1 222.365 62.9C222.898 63.7 223.165 64.8 223.165 66.2C223.165 68.7333 222.532 70.8 221.265 72.4C218.132 76.2667 214.365 79.2667 209.965 81.4C205.632 83.4667 201.432 84.5 197.365 84.5ZM227.381 84.5C223.048 84.5 219.881 82.9667 217.881 79.9C215.948 76.8333 214.981 72.7667 214.981 67.7C214.981 64.7 215.348 60.8667 216.081 56.2C216.881 51.4667 217.881 47.0667 219.081 43C219.681 40.8667 220.481 39.4 221.481 38.6C222.481 37.8 224.081 37.4 226.281 37.4C229.681 37.4 231.381 38.5333 231.381 40.8C231.381 42.4667 230.748 46.3333 229.481 52.4C227.881 59.7333 227.081 64.7 227.081 67.3C227.081 69.3 227.348 70.8333 227.881 71.9C228.415 72.9667 229.315 73.5 230.581 73.5C231.781 73.5 233.281 72.6667 235.081 71C236.881 69.3333 239.281 66.7 242.281 63.1C243.081 62.1667 243.981 61.7 244.981 61.7C245.848 61.7 246.515 62.1 246.981 62.9C247.515 63.7 247.781 64.8 247.781 66.2C247.781 68.8667 247.148 70.9333 245.881 72.4C239.281 80.4667 233.115 84.5 227.381 84.5ZM227.181 30.8C226.248 30.8 225.415 30.4667 224.681 29.8C224.015 29.0667 223.681 28.2 223.681 27.2C223.681 26.7333 223.848 26.1 224.181 25.3L233.481 4.5C234.081 3.16666 234.848 2.19999 235.781 1.59999C236.781 0.933328 237.881 0.599995 239.081 0.599995C240.748 0.599995 242.215 1.2 243.481 2.4C244.815 3.6 245.481 5.1 245.481 6.9C245.481 8.76666 244.748 10.6333 243.281 12.5L230.381 29.1C229.515 30.2333 228.448 30.8 227.181 30.8ZM258.791 84.5C252.257 84.5 247.157 82.6667 243.491 79C239.891 75.2667 238.091 70.3667 238.091 64.3C238.091 58.9 239.157 54.1667 241.291 50.1C243.424 46.0333 246.191 42.9 249.591 40.7C252.991 38.5 256.557 37.4 260.291 37.4C263.957 37.4 266.791 38.5 268.791 40.7C270.857 42.8333 271.891 45.6 271.891 49C271.891 51.8 271.257 54.1667 269.991 56.1C268.791 58.0333 267.191 59 265.191 59C263.924 59 262.891 58.7 262.091 58.1C261.357 57.5 260.991 56.6667 260.991 55.6C260.991 55.1333 261.057 54.6 261.191 54C261.324 53.4 261.424 52.9667 261.491 52.7C261.824 51.7 261.991 50.7667 261.991 49.9C261.991 49.0333 261.757 48.3667 261.291 47.9C260.891 47.4333 260.291 47.2 259.491 47.2C257.957 47.2 256.524 47.9 255.191 49.3C253.857 50.6333 252.791 52.4667 251.991 54.8C251.191 57.1333 250.791 59.7 250.791 62.5C250.791 70.2333 254.157 74.1 260.891 74.1C263.624 74.1 266.557 73.2 269.691 71.4C272.891 69.5333 276.024 66.7667 279.091 63.1C279.891 62.1667 280.791 61.7 281.791 61.7C282.657 61.7 283.324 62.1 283.791 62.9C284.324 63.7 284.591 64.8 284.591 66.2C284.591 68.7333 283.957 70.8 282.691 72.4C279.557 76.2667 275.791 79.2667 271.391 81.4C267.057 83.4667 262.857 84.5 258.791 84.5ZM289.607 30.8C286.807 30.8 284.707 30.1667 283.307 28.9C281.907 27.5667 281.207 25.7333 281.207 23.4C281.207 21.0667 282.107 19.1333 283.907 17.6C285.774 16 288.074 15.2 290.807 15.2C293.274 15.2 295.274 15.8 296.807 17C298.34 18.2 299.107 19.9 299.107 22.1C299.107 24.7667 298.24 26.9 296.507 28.5C294.774 30.0333 292.474 30.8 289.607 30.8ZM288.807 84.5C284.474 84.5 281.307 82.9667 279.307 79.9C277.374 76.8333 276.407 72.7667 276.407 67.7C276.407 64.7 276.774 60.8667 277.507 56.2C278.307 51.4667 279.307 47.0667 280.507 43C281.107 40.8667 281.907 39.4 282.907 38.6C283.907 37.8 285.507 37.4 287.707 37.4C291.107 37.4 292.807 38.5333 292.807 40.8C292.807 42.4667 292.174 46.3333 290.907 52.4C289.307 59.7333 288.507 64.7 288.507 67.3C288.507 69.3 288.774 70.8333 289.307 71.9C289.84 72.9667 290.74 73.5 292.007 73.5C293.207 73.5 294.707 72.6667 296.507 71C298.307 69.3333 300.707 66.7 303.707 63.1C304.507 62.1667 305.407 61.7 306.407 61.7C307.274 61.7 307.94 62.1 308.407 62.9C308.94 63.7 309.207 64.8 309.207 66.2C309.207 68.8667 308.574 70.9333 307.307 72.4C300.707 80.4667 294.54 84.5 288.807 84.5ZM318.016 84.5C314.083 84.5 310.716 83.5333 307.916 81.6C305.183 79.6 303.116 77 301.716 73.8C300.316 70.6 299.616 67.1667 299.616 63.5C299.616 58.4333 300.55 53.9333 302.416 50C304.35 46 306.95 42.9 310.216 40.7C313.483 38.4333 317.15 37.3 321.216 37.3C325.15 37.3 328.516 38.3 331.316 40.3C334.116 42.2333 336.216 44.8 337.616 48C339.016 51.2 339.716 54.6333 339.716 58.3C339.716 63.3667 338.75 67.9 336.816 71.9C334.883 75.8333 332.25 78.9333 328.916 81.2C325.65 83.4 322.016 84.5 318.016 84.5ZM319.116 73.7C321.383 73.7 323.283 72.4667 324.816 70C326.416 67.5333 327.216 63.9333 327.216 59.2C327.216 55.5333 326.55 52.7667 325.216 50.9C323.883 49.0333 322.283 48.1 320.416 48.1C318.016 48.1 316.016 49.3333 314.416 51.8C312.883 54.2 312.116 57.8 312.116 62.6C312.116 66.4 312.783 69.2 314.116 71C315.45 72.8 317.116 73.7 319.116 73.7Z" fill="url(#paint0_linear_1612_265)"/>
<defs>
<linearGradient id="paint0_linear_1612_265" x1="-3" y1="41" x2="312.5" y2="41" gradientUnits="userSpaceOnUse">
<stop offset="0.765625" stop-color="#A8CD5A"/>
<stop offset="1" stop-color="#E2F3BF"/>
</linearGradient>
</defs>
</svg>
