<svg width="232" height="94" viewBox="0 0 232 94" fill="none" xmlns="http://www.w3.org/2000/svg">
<path d="M57.0664 25.9C57.9331 25.9 58.5997 26.3333 59.0664 27.2C59.5997 28 59.8664 29.0333 59.8664 30.3C59.8664 31.8333 59.6331 33.0333 59.1664 33.9C58.6997 34.7667 57.9664 35.5333 56.9664 36.2C51.2331 40.0667 47.0331 42.9333 44.3664 44.8L37.9664 49.1C35.4331 62.9 32.0997 73.7333 27.9664 81.6C23.8997 89.5333 18.6997 93.5 12.3664 93.5C8.96641 93.5 6.19974 92.4333 4.06641 90.3C1.93307 88.2333 0.866406 85.5 0.866406 82.1C0.866406 77.3667 2.73307 72.2667 6.46641 66.8C10.1997 61.4 17.1997 54.7333 27.4664 46.8L28.0664 42.9C26.9331 44.7 25.4331 46.1 23.5664 47.1C21.7664 48.0333 19.9664 48.5 18.1664 48.5C14.0331 48.5 10.7331 47 8.26641 44C5.79974 41 4.56641 37.0667 4.56641 32.2C4.56641 26.8667 5.79974 21.8333 8.26641 17.1C10.7331 12.3 13.9997 8.46667 18.0664 5.6C22.1997 2.66666 26.5664 1.2 31.1664 1.2C32.6331 1.2 33.5997 1.5 34.0664 2.1C34.5997 2.63333 35.0331 3.63333 35.3664 5.1C36.6331 4.83333 38.0997 4.7 39.7664 4.7C41.4331 4.7 42.5997 4.96666 43.2664 5.5C43.9997 5.96667 44.3664 6.93333 44.3664 8.4C44.3664 9.2 44.3331 9.83333 44.2664 10.3C43.9997 12.3667 43.1664 17.6 41.7664 26C41.4997 27.6 41.1997 29.3667 40.8664 31.3C40.5997 33.1667 40.2997 35.1667 39.9664 37.3C45.0997 33.3 50.0331 29.7667 54.7664 26.7C55.6331 26.1667 56.3997 25.9 57.0664 25.9ZM21.7664 38.4C23.2997 38.4 24.7664 37.4667 26.1664 35.6C27.5664 33.7333 28.5664 31.0667 29.1664 27.6L32.3664 10.5C29.6331 10.5667 27.0997 11.6333 24.7664 13.7C22.4331 15.7 20.5664 18.3667 19.1664 21.7C17.7664 25.0333 17.0664 28.5667 17.0664 32.3C17.0664 34.3667 17.4664 35.9 18.2664 36.9C19.1331 37.9 20.2997 38.4 21.7664 38.4ZM13.4664 83.8C15.1331 83.8 16.9997 81.8 19.0664 77.8C21.1997 73.8 23.2331 67.4333 25.1664 58.7C20.0331 63.1 16.3331 67.0667 14.0664 70.6C11.7997 74.1333 10.6664 77.2333 10.6664 79.9C10.6664 81.0333 10.8664 81.9667 11.2664 82.7C11.7331 83.4333 12.4664 83.8 13.4664 83.8ZM59.7438 48.5C57.2104 48.5 55.4104 47.1667 54.3438 44.5C53.3438 41.8333 52.8438 37.5667 52.8438 31.7C52.8438 23.0333 54.0771 14.8 56.5438 7C57.1438 5.06667 58.1104 3.66667 59.4438 2.8C60.8438 1.86666 62.7771 1.4 65.2438 1.4C66.5771 1.4 67.5104 1.56666 68.0438 1.9C68.5771 2.23333 68.8438 2.86666 68.8438 3.8C68.8438 4.86666 68.3438 7.26666 67.3438 11C66.6771 13.6667 66.1438 16 65.7438 18C65.3438 20 65.0104 22.4667 64.7438 25.4C66.9438 19.6667 69.4104 15 72.1438 11.4C74.8771 7.8 77.5438 5.23333 80.1438 3.7C82.8104 2.16666 85.2438 1.4 87.4438 1.4C91.7771 1.4 93.9438 3.56666 93.9438 7.9C93.9438 8.76667 93.6438 10.8667 93.0438 14.2C92.5104 16.8667 92.2438 18.5333 92.2438 19.2C92.2438 21.5333 93.0771 22.7 94.7438 22.7C96.6104 22.7 99.0104 21.2333 101.944 18.3C102.81 17.4333 103.71 17 104.644 17C105.51 17 106.177 17.4 106.644 18.2C107.177 18.9333 107.444 19.9333 107.444 21.2C107.444 23.6667 106.777 25.6 105.444 27C103.577 28.9333 101.377 30.6 98.8438 32C96.3771 33.3333 93.7438 34 90.9438 34C87.4104 34 84.7104 33.1 82.8438 31.3C81.0438 29.5 80.1438 27.0667 80.1438 24C80.1438 23 80.2438 22 80.4438 21C80.5771 19.6667 80.6438 18.7667 80.6438 18.3C80.6438 17.2333 80.2771 16.7 79.5438 16.7C78.5438 16.7 77.2104 17.8333 75.5438 20.1C73.9438 22.3 72.3438 25.2333 70.7438 28.9C69.1438 32.5667 67.8438 36.4333 66.8438 40.5C66.1104 43.6333 65.2438 45.7667 64.2438 46.9C63.3104 47.9667 61.8104 48.5 59.7438 48.5ZM108.352 48.5C105.352 48.5 102.885 47.1333 100.952 44.4C99.0849 41.6 98.1516 38.1333 98.1516 34C98.1516 29 98.4849 24.4333 99.1516 20.3C99.8182 16.1 100.918 11.6667 102.452 7C103.118 5 104.052 3.56666 105.252 2.7C106.452 1.83333 108.352 1.4 110.952 1.4C112.418 1.4 113.418 1.63333 113.952 2.1C114.552 2.56666 114.852 3.26666 114.852 4.2C114.852 4.73333 114.485 6.53333 113.752 9.6C113.085 12.0667 112.552 14.3 112.152 16.3C110.818 23.3 110.152 27.9667 110.152 30.3C110.152 31.7 110.318 32.7 110.652 33.3C110.985 33.8333 111.518 34.1 112.252 34.1C113.252 34.1 114.485 33.1 115.952 31.1C117.485 29.1 119.085 26.0667 120.752 22C122.485 17.9333 124.152 12.9333 125.752 7C126.285 5 127.085 3.56666 128.152 2.7C129.285 1.83333 130.952 1.4 133.152 1.4C134.685 1.4 135.752 1.6 136.352 2C136.952 2.33333 137.252 3 137.252 4C137.252 5.66666 136.418 10.2333 134.752 17.7C132.885 26.2333 131.952 31.5 131.952 33.5C131.952 34.7667 132.218 35.7667 132.752 36.5C133.285 37.1667 133.985 37.5 134.852 37.5C136.185 37.5 137.752 36.7 139.552 35.1C141.418 33.4333 143.885 30.7667 146.952 27.1C147.752 26.1667 148.652 25.7 149.652 25.7C150.518 25.7 151.185 26.1 151.652 26.9C152.185 27.7 152.452 28.8 152.452 30.2C152.452 32.8667 151.818 34.9333 150.552 36.4C147.685 39.9333 144.585 42.8333 141.252 45.1C137.985 47.3667 134.252 48.5 130.052 48.5C126.852 48.5 124.485 47.2667 122.952 44.8C121.485 42.3333 120.752 38.8667 120.752 34.4C119.618 38.9333 117.918 42.4333 115.652 44.9C113.385 47.3 110.952 48.5 108.352 48.5ZM197.743 25.7C198.61 25.7 199.276 26.1 199.743 26.9C200.276 27.7 200.543 28.8 200.543 30.2C200.543 32.8667 199.91 34.9333 198.643 36.4C195.776 39.9333 192.676 42.8333 189.343 45.1C186.076 47.3667 182.343 48.5 178.143 48.5C174.61 48.5 171.743 47.2333 169.543 44.7C165.743 47.1667 161.776 48.4333 157.643 48.5C156.776 61.3667 154.81 72.1 151.743 80.7C148.676 89.3667 144.176 93.7 138.243 93.7C134.643 93.7 131.976 92.4 130.243 89.8C128.51 87.2 127.643 83.6 127.643 79C127.643 72.4667 129.143 64.8333 132.143 56.1C135.143 47.4333 139.776 37.8667 146.043 27.4C146.043 17.6667 145.976 10.9 145.843 7.1C145.776 5.16666 146.543 3.63333 148.143 2.5C149.743 1.36666 151.743 0.799997 154.143 0.799997C155.543 0.799997 156.543 1.1 157.143 1.7C157.81 2.23333 158.176 3.33333 158.243 5C158.243 6.66666 158.276 7.9 158.343 8.7C160.476 6.03333 162.576 4.13333 164.643 3C166.71 1.8 168.91 1.2 171.243 1.2C174.976 1.2 178.01 2.7 180.343 5.7C182.743 8.7 183.943 12.6333 183.943 17.5C183.943 21.0333 183.376 24.4667 182.243 27.8C181.11 31.1333 179.543 34.1667 177.543 36.9C178.943 37.3 180.11 37.5 181.043 37.5C183.243 37.5 185.343 36.7 187.343 35.1C189.343 33.5 191.91 30.8333 195.043 27.1C195.843 26.1667 196.743 25.7 197.743 25.7ZM158.143 38.9C160.543 38.3667 162.743 37.0667 164.743 35C166.81 32.8667 168.443 30.2667 169.643 27.2C170.843 24.0667 171.443 20.8 171.443 17.4C171.443 15.4 171.043 13.9 170.243 12.9C169.443 11.8333 168.376 11.3 167.043 11.3C164.643 11.3 161.743 13.8333 158.343 18.9C158.276 21.8333 158.243 26.1333 158.243 31.8C158.243 34.8667 158.21 37.2333 158.143 38.9ZM139.043 83.9C140.843 83.9 142.343 79.9667 143.543 72.1C144.743 64.3 145.51 54.5667 145.843 42.9C142.976 49.5667 140.71 55.9333 139.043 62C137.376 68.0667 136.543 73.1667 136.543 77.3C136.543 79.4333 136.81 81.0667 137.343 82.2C137.81 83.3333 138.376 83.9 139.043 83.9ZM209.388 48.5C205.454 48.5 202.088 47.5333 199.288 45.6C196.554 43.6 194.488 41 193.088 37.8C191.688 34.6 190.987 31.1667 190.987 27.5C190.987 22.4333 191.921 17.9333 193.788 14C195.721 10 198.321 6.9 201.588 4.7C204.854 2.43333 208.521 1.3 212.588 1.3C216.521 1.3 219.888 2.3 222.688 4.3C225.488 6.23333 227.588 8.8 228.988 12C230.388 15.2 231.088 18.6333 231.088 22.3C231.088 27.3667 230.121 31.9 228.188 35.9C226.254 39.8333 223.621 42.9333 220.288 45.2C217.021 47.4 213.388 48.5 209.388 48.5ZM210.488 37.7C212.754 37.7 214.654 36.4667 216.188 34C217.788 31.5333 218.588 27.9333 218.588 23.2C218.588 19.5333 217.921 16.7667 216.588 14.9C215.254 13.0333 213.654 12.1 211.788 12.1C209.388 12.1 207.388 13.3333 205.788 15.8C204.254 18.2 203.488 21.8 203.488 26.6C203.488 30.4 204.154 33.2 205.488 35C206.821 36.8 208.488 37.7 210.488 37.7Z" fill="url(#paint0_linear_1612_244)"/>
<defs>
<linearGradient id="paint0_linear_1612_244" x1="233" y1="5.71547" x2="0.999997" y2="5.71546" gradientUnits="userSpaceOnUse">
<stop offset="0.447278" stop-color="#3F2180"/>
<stop offset="1" stop-color="#DAD0F0"/>
</linearGradient>
</defs>
</svg>
