<svg width="580" height="219" viewBox="0 0 580 219" fill="none" xmlns="http://www.w3.org/2000/svg">
<path d="M14.852 95.54C12.116 95.54 10.172 94.1 9.02 91.22C7.94 88.34 7.4 83.732 7.4 77.396C7.4 68.036 8.732 59.144 11.396 50.72C12.044 48.632 13.088 47.12 14.528 46.184C16.04 45.176 18.128 44.672 20.792 44.672C22.232 44.672 23.24 44.852 23.816 45.212C24.392 45.572 24.68 46.256 24.68 47.264C24.68 48.416 24.14 51.008 23.06 55.04C22.34 57.92 21.764 60.44 21.332 62.6C20.9 64.688 20.54 67.316 20.252 70.484C22.196 64.868 24.5 60.116 27.164 56.228C29.9 52.34 32.672 49.46 35.48 47.588C38.36 45.644 41.06 44.672 43.58 44.672C46.1 44.672 47.864 45.248 48.872 46.4C49.952 47.552 50.492 49.316 50.492 51.692C50.492 53.996 49.808 58.172 48.44 64.22C47.864 66.812 47.468 68.756 47.252 70.052C50.852 61.196 54.848 54.752 59.24 50.72C63.632 46.688 67.736 44.672 71.552 44.672C76.232 44.672 78.572 47.012 78.572 51.692C78.572 54.5 77.78 59.576 76.196 66.92C74.828 73.184 74.144 77.324 74.144 79.34C74.144 82.22 75.188 83.66 77.276 83.66C78.716 83.66 80.408 82.796 82.352 81.068C84.368 79.268 87.032 76.388 90.344 72.428C91.208 71.42 92.18 70.916 93.26 70.916C94.196 70.916 94.916 71.348 95.42 72.212C95.996 73.076 96.284 74.264 96.284 75.776C96.284 78.656 95.6 80.888 94.232 82.472C91.136 86.288 87.788 89.42 84.188 91.868C80.66 94.316 76.628 95.54 72.092 95.54C68.42 95.54 65.648 94.496 63.776 92.408C61.904 90.248 60.968 87.152 60.968 83.12C60.968 81.104 61.472 77.504 62.48 72.32C63.416 67.784 63.884 64.652 63.884 62.924C63.884 61.772 63.488 61.196 62.696 61.196C61.76 61.196 60.428 62.42 58.7 64.868C56.972 67.244 55.244 70.412 53.516 74.372C51.788 78.332 50.384 82.508 49.304 86.9C48.512 90.356 47.576 92.66 46.496 93.812C45.488 94.964 43.832 95.54 41.528 95.54C39.152 95.54 37.352 94.424 36.128 92.192C34.976 89.888 34.4 87.116 34.4 83.876C34.4 81.14 34.76 77.18 35.48 71.996C36.056 67.388 36.344 64.364 36.344 62.924C36.344 61.772 35.948 61.196 35.156 61.196C34.076 61.196 32.708 62.492 31.052 65.084C29.396 67.676 27.776 70.988 26.192 75.02C24.68 79.052 23.456 83.012 22.52 86.9C21.728 90.284 20.792 92.588 19.712 93.812C18.704 94.964 17.084 95.54 14.852 95.54ZM142.631 61.844C143.567 61.844 144.287 62.312 144.791 63.248C145.295 64.184 145.547 65.372 145.547 66.812C145.547 70.268 144.503 72.32 142.415 72.968C138.095 74.48 133.343 75.344 128.159 75.56C126.791 81.608 124.091 86.468 120.059 90.14C116.027 93.74 111.455 95.54 106.343 95.54C102.023 95.54 98.3152 94.496 95.2192 92.408C92.1952 90.32 89.8912 87.548 88.3072 84.092C86.7232 80.636 85.9312 76.892 85.9312 72.86C85.9312 67.388 86.9752 62.528 89.0632 58.28C91.1512 53.96 94.0312 50.612 97.7032 48.236C101.375 45.788 105.443 44.564 109.907 44.564C115.379 44.564 119.771 46.472 123.083 50.288C126.467 54.032 128.447 58.676 129.023 64.22C132.407 64.004 136.439 63.284 141.119 62.06C141.695 61.916 142.199 61.844 142.631 61.844ZM107.207 84.092C109.511 84.092 111.491 83.156 113.147 81.284C114.875 79.412 116.027 76.712 116.603 73.184C114.371 71.672 112.643 69.692 111.419 67.244C110.267 64.796 109.691 62.204 109.691 59.468C109.691 58.316 109.799 57.164 110.015 56.012H109.475C106.595 56.012 104.183 57.416 102.239 60.224C100.367 62.96 99.4312 66.848 99.4312 71.888C99.4312 75.848 100.187 78.872 101.699 80.96C103.283 83.048 105.119 84.092 107.207 84.092ZM190.792 62.168C191.008 62.096 191.368 62.06 191.872 62.06C192.952 62.06 193.78 62.42 194.356 63.14C194.932 63.86 195.22 64.832 195.22 66.056C195.22 68.288 194.788 70.052 193.924 71.348C193.06 72.572 191.764 73.472 190.036 74.048C186.724 75.128 183.196 75.668 179.452 75.668C176.284 75.668 173.296 75.236 170.488 74.372C168.4 77.756 166.096 81.248 163.576 84.848C160.696 88.952 158.212 91.76 156.124 93.272C154.036 94.784 151.66 95.54 148.996 95.54C146.044 95.54 143.704 94.388 141.976 92.084C140.32 89.78 139.276 86.144 138.844 81.176C137.98 71.096 137.548 62.276 137.548 54.716V50.936C137.62 48.56 138.268 46.904 139.492 45.968C140.716 45.032 142.552 44.564 145 44.564C146.872 44.564 148.24 44.996 149.104 45.86C150.04 46.652 150.508 48.02 150.508 49.964C150.508 58.244 151.012 69.008 152.02 82.256C156.34 75.848 159.58 70.736 161.74 66.92C160.66 64.832 160.12 62.348 160.12 59.468C160.12 57.02 160.66 54.644 161.74 52.34C162.82 50.036 164.296 48.164 166.168 46.724C168.04 45.284 170.164 44.564 172.54 44.564C174.628 44.564 176.32 45.32 177.616 46.832C178.912 48.272 179.56 50.396 179.56 53.204C179.56 56.444 178.696 60.152 176.968 64.328C179.704 64.184 183.34 63.644 187.876 62.708L190.792 62.168ZM199.996 37.544C196.972 37.544 194.704 36.86 193.192 35.492C191.68 34.052 190.924 32.072 190.924 29.552C190.924 27.032 191.896 24.944 193.84 23.288C195.856 21.56 198.34 20.696 201.292 20.696C203.956 20.696 206.116 21.344 207.772 22.64C209.428 23.936 210.256 25.772 210.256 28.148C210.256 31.028 209.32 33.332 207.448 35.06C205.576 36.716 203.092 37.544 199.996 37.544ZM199.132 95.54C194.452 95.54 191.032 93.884 188.872 90.572C186.784 87.26 185.74 82.868 185.74 77.396C185.74 74.156 186.136 70.016 186.928 64.976C187.792 59.864 188.872 55.112 190.168 50.72C190.816 48.416 191.68 46.832 192.76 45.968C193.84 45.104 195.568 44.672 197.944 44.672C201.616 44.672 203.452 45.896 203.452 48.344C203.452 50.144 202.768 54.32 201.4 60.872C199.672 68.792 198.808 74.156 198.808 76.964C198.808 79.124 199.096 80.78 199.672 81.932C200.248 83.084 201.22 83.66 202.588 83.66C203.884 83.66 205.504 82.76 207.448 80.96C209.392 79.16 211.984 76.316 215.224 72.428C216.088 71.42 217.06 70.916 218.14 70.916C219.076 70.916 219.796 71.348 220.3 72.212C220.876 73.076 221.164 74.264 221.164 75.776C221.164 78.656 220.48 80.888 219.112 82.472C211.984 91.184 205.324 95.54 199.132 95.54ZM220.094 95.54C217.358 95.54 215.414 94.1 214.262 91.22C213.182 88.34 212.642 83.732 212.642 77.396C212.642 68.036 213.974 59.144 216.638 50.72C217.286 48.632 218.33 47.12 219.77 46.184C221.282 45.176 223.37 44.672 226.034 44.672C227.474 44.672 228.482 44.852 229.058 45.212C229.634 45.572 229.922 46.256 229.922 47.264C229.922 48.416 229.382 51.008 228.302 55.04C227.582 57.92 227.006 60.44 226.574 62.6C226.142 64.688 225.782 67.316 225.494 70.484C227.438 64.868 229.742 60.116 232.406 56.228C235.142 52.34 237.914 49.46 240.722 47.588C243.602 45.644 246.302 44.672 248.822 44.672C251.342 44.672 253.106 45.248 254.114 46.4C255.194 47.552 255.734 49.316 255.734 51.692C255.734 53.996 255.05 58.172 253.682 64.22C253.106 66.812 252.71 68.756 252.494 70.052C256.094 61.196 260.09 54.752 264.482 50.72C268.874 46.688 272.978 44.672 276.794 44.672C281.474 44.672 283.814 47.012 283.814 51.692C283.814 54.5 283.022 59.576 281.438 66.92C280.07 73.184 279.386 77.324 279.386 79.34C279.386 82.22 280.43 83.66 282.518 83.66C283.958 83.66 285.65 82.796 287.594 81.068C289.61 79.268 292.274 76.388 295.586 72.428C296.45 71.42 297.422 70.916 298.502 70.916C299.438 70.916 300.158 71.348 300.662 72.212C301.238 73.076 301.526 74.264 301.526 75.776C301.526 78.656 300.842 80.888 299.474 82.472C296.378 86.288 293.03 89.42 289.43 91.868C285.902 94.316 281.87 95.54 277.334 95.54C273.662 95.54 270.89 94.496 269.018 92.408C267.146 90.248 266.21 87.152 266.21 83.12C266.21 81.104 266.714 77.504 267.722 72.32C268.658 67.784 269.126 64.652 269.126 62.924C269.126 61.772 268.73 61.196 267.938 61.196C267.002 61.196 265.67 62.42 263.942 64.868C262.214 67.244 260.486 70.412 258.758 74.372C257.03 78.332 255.626 82.508 254.546 86.9C253.754 90.356 252.818 92.66 251.738 93.812C250.73 94.964 249.074 95.54 246.77 95.54C244.394 95.54 242.594 94.424 241.37 92.192C240.218 89.888 239.642 87.116 239.642 83.876C239.642 81.14 240.002 77.18 240.722 71.996C241.298 67.388 241.586 64.364 241.586 62.924C241.586 61.772 241.19 61.196 240.398 61.196C239.318 61.196 237.95 62.492 236.294 65.084C234.638 67.676 233.018 70.988 231.434 75.02C229.922 79.052 228.698 83.012 227.762 86.9C226.97 90.284 226.034 92.588 224.954 93.812C223.946 94.964 222.326 95.54 220.094 95.54ZM340.961 70.916C341.897 70.916 342.617 71.348 343.121 72.212C343.697 73.076 343.985 74.264 343.985 75.776C343.985 78.656 343.301 80.888 341.933 82.472C339.269 85.712 335.489 88.7 330.593 91.436C325.769 94.172 320.585 95.54 315.041 95.54C307.481 95.54 301.613 93.488 297.437 89.384C293.261 85.28 291.173 79.664 291.173 72.536C291.173 67.568 292.217 62.96 294.305 58.712C296.393 54.392 299.273 50.972 302.945 48.452C306.689 45.932 310.901 44.672 315.581 44.672C319.757 44.672 323.105 45.932 325.625 48.452C328.145 50.9 329.405 54.248 329.405 58.496C329.405 63.464 327.605 67.748 324.005 71.348C320.477 74.876 314.465 77.684 305.969 79.772C307.769 83.084 311.189 84.74 316.229 84.74C319.469 84.74 323.141 83.624 327.245 81.392C331.421 79.088 335.021 76.1 338.045 72.428C338.909 71.42 339.881 70.916 340.961 70.916ZM313.745 55.256C311.081 55.256 308.813 56.804 306.941 59.9C305.141 62.996 304.241 66.74 304.241 71.132V71.348C308.489 70.34 311.837 68.828 314.285 66.812C316.733 64.796 317.957 62.456 317.957 59.792C317.957 58.424 317.561 57.344 316.769 56.552C316.049 55.688 315.041 55.256 313.745 55.256ZM342.86 95.54C340.124 95.54 338.18 94.1 337.028 91.22C335.948 88.34 335.408 83.732 335.408 77.396C335.408 68.036 336.74 59.144 339.404 50.72C340.052 48.632 341.096 47.12 342.536 46.184C344.048 45.176 346.136 44.672 348.8 44.672C350.24 44.672 351.248 44.852 351.824 45.212C352.4 45.572 352.688 46.256 352.688 47.264C352.688 48.416 352.148 51.008 351.068 55.04C350.348 57.92 349.772 60.44 349.34 62.6C348.908 64.76 348.548 67.424 348.26 70.592C350.636 64.4 353.3 59.36 356.252 55.472C359.204 51.584 362.084 48.812 364.892 47.156C367.772 45.5 370.4 44.672 372.776 44.672C377.456 44.672 379.796 47.012 379.796 51.692C379.796 54.5 379.004 59.576 377.42 66.92C376.052 73.184 375.368 77.324 375.368 79.34C375.368 82.22 376.412 83.66 378.5 83.66C379.94 83.66 381.632 82.796 383.576 81.068C385.592 79.268 388.256 76.388 391.568 72.428C392.432 71.42 393.404 70.916 394.484 70.916C395.42 70.916 396.14 71.348 396.644 72.212C397.22 73.076 397.508 74.264 397.508 75.776C397.508 78.656 396.824 80.888 395.456 82.472C392.36 86.288 389.012 89.42 385.412 91.868C381.884 94.316 377.852 95.54 373.316 95.54C369.644 95.54 366.872 94.496 365 92.408C363.128 90.248 362.192 87.152 362.192 83.12C362.192 81.104 362.696 77.504 363.704 72.32C364.64 67.784 365.108 64.652 365.108 62.924C365.108 61.772 364.712 61.196 363.92 61.196C362.984 61.196 361.652 62.42 359.924 64.868C358.268 67.244 356.54 70.412 354.74 74.372C353.012 78.332 351.608 82.508 350.528 86.9C349.736 90.284 348.8 92.588 347.72 93.812C346.712 94.964 345.092 95.54 342.86 95.54ZM436.938 70.916C437.874 70.916 438.594 71.348 439.098 72.212C439.674 73.076 439.962 74.264 439.962 75.776C439.962 78.656 439.278 80.888 437.91 82.472C434.814 86.288 431.43 89.42 427.758 91.868C424.086 94.316 419.874 95.54 415.122 95.54C400.434 95.54 393.09 85.208 393.09 64.544C393.09 61.376 393.198 58.172 393.414 54.932H389.202C387.042 54.932 385.566 54.536 384.774 53.744C384.054 52.952 383.694 51.692 383.694 49.964C383.694 45.932 385.314 43.916 388.554 43.916H394.71C395.934 35.996 397.806 28.76 400.326 22.208C402.846 15.656 405.87 10.436 409.398 6.54799C412.998 2.66 416.85 0.715997 420.954 0.715997C423.978 0.715997 426.354 2.048 428.082 4.712C429.81 7.376 430.674 10.724 430.674 14.756C430.674 25.916 425.994 35.636 416.634 43.916H428.73C429.882 43.916 430.71 44.168 431.214 44.672C431.718 45.176 431.97 46.112 431.97 47.48C431.97 52.448 427.902 54.932 419.766 54.932H406.59C406.446 58.532 406.374 61.34 406.374 63.356C406.374 70.844 407.238 76.1 408.966 79.124C410.766 82.148 413.574 83.66 417.39 83.66C420.486 83.66 423.222 82.724 425.598 80.852C427.974 78.98 430.782 76.172 434.022 72.428C434.886 71.42 435.858 70.916 436.938 70.916ZM418.038 11.084C416.958 11.084 415.734 12.452 414.366 15.188C413.07 17.852 411.81 21.596 410.586 26.42C409.434 31.172 408.462 36.464 407.67 42.296C411.918 38.624 415.086 34.52 417.174 29.984C419.334 25.376 420.414 21.2 420.414 17.456C420.414 13.208 419.622 11.084 418.038 11.084ZM444.452 95.54C439.988 95.54 436.424 93.92 433.76 90.68C431.096 87.44 429.764 83.192 429.764 77.936C429.764 72.176 431.096 66.74 433.76 61.628C436.424 56.444 439.952 52.304 444.344 49.208C448.808 46.04 453.524 44.456 458.492 44.456C460.076 44.456 461.12 44.78 461.624 45.428C462.2 46.004 462.668 47.084 463.028 48.668C464.54 48.38 466.124 48.236 467.78 48.236C471.308 48.236 473.072 49.496 473.072 52.016C473.072 53.528 472.532 57.128 471.452 62.816C469.796 71.096 468.968 76.856 468.968 80.096C468.968 81.176 469.22 82.04 469.724 82.688C470.3 83.336 471.02 83.66 471.884 83.66C473.252 83.66 474.908 82.796 476.852 81.068C478.796 79.268 481.424 76.388 484.736 72.428C485.6 71.42 486.572 70.916 487.652 70.916C488.588 70.916 489.308 71.348 489.812 72.212C490.388 73.076 490.676 74.264 490.676 75.776C490.676 78.656 489.992 80.888 488.624 82.472C485.672 86.144 482.54 89.24 479.228 91.76C475.916 94.28 472.712 95.54 469.616 95.54C467.24 95.54 465.044 94.748 463.028 93.164C461.084 91.508 459.608 89.276 458.6 86.468C454.856 92.516 450.14 95.54 444.452 95.54ZM448.34 84.632C449.924 84.632 451.436 83.696 452.876 81.824C454.316 79.952 455.36 77.468 456.008 74.372L460.004 54.5C456.98 54.572 454.172 55.724 451.58 57.956C449.06 60.116 447.044 62.996 445.532 66.596C444.02 70.196 443.264 74.012 443.264 78.044C443.264 80.276 443.696 81.932 444.56 83.012C445.496 84.092 446.756 84.632 448.34 84.632ZM525.531 59.468C527.115 59.468 528.447 60.044 529.527 61.196C530.679 62.276 531.255 63.644 531.255 65.3C531.255 66.236 531.039 67.244 530.607 68.324C529.455 70.988 527.835 73.22 525.747 75.02C523.659 76.82 521.355 77.72 518.835 77.72C516.819 77.72 515.091 77 513.651 75.56C512.283 74.12 511.599 72.176 511.599 69.728C511.599 68.36 511.671 66.884 511.815 65.3C511.959 64.148 512.031 63.356 512.031 62.924C512.031 62.348 511.887 61.916 511.599 61.628C511.383 61.34 511.095 61.196 510.735 61.196C509.727 61.196 508.359 62.42 506.631 64.868C504.903 67.244 503.175 70.412 501.447 74.372C499.719 78.332 498.315 82.508 497.235 86.9C496.443 90.356 495.543 92.66 494.535 93.812C493.527 94.964 491.871 95.54 489.567 95.54C486.831 95.54 484.887 94.1 483.735 91.22C482.655 88.34 482.115 83.732 482.115 77.396C482.115 68.036 483.447 59.144 486.111 50.72C486.759 48.632 487.803 47.12 489.243 46.184C490.755 45.176 492.843 44.672 495.507 44.672C496.947 44.672 497.955 44.852 498.531 45.212C499.107 45.572 499.395 46.256 499.395 47.264C499.395 48.416 498.855 51.008 497.775 55.04C497.055 57.92 496.479 60.44 496.047 62.6C495.615 64.76 495.255 67.424 494.967 70.592C497.343 64.4 500.007 59.36 502.959 55.472C505.911 51.584 508.791 48.812 511.599 47.156C514.407 45.5 516.963 44.672 519.267 44.672C521.355 44.672 522.939 45.284 524.019 46.508C525.171 47.66 525.747 49.388 525.747 51.692C525.747 53.06 525.351 55.652 524.559 59.468H525.531ZM27.272 171.916C23.528 171.916 20.648 171.052 18.632 169.324C16.688 167.596 15.716 165.652 15.716 163.492C15.716 161.62 16.4 160 17.768 158.632C19.136 157.264 21.152 156.58 23.816 156.58C24.752 156.58 25.832 156.688 27.056 156.904C28.352 157.048 29.324 157.156 29.972 157.228C29.9 155.356 29.468 153.592 28.676 151.936C27.956 150.28 27.02 148.696 25.868 147.184C24.716 145.6 23.636 144.232 22.628 143.08C20.396 147.328 18.164 150.856 15.932 153.664C13.772 156.472 11.396 159.136 8.804 161.656C7.508 162.952 6.14 163.6 4.7 163.6C3.548 163.6 2.612 163.204 1.892 162.412C1.172 161.548 0.812 160.504 0.812 159.28C0.812 157.84 1.316 156.508 2.324 155.284L3.728 153.556C7.688 148.66 10.676 144.628 12.692 141.46C13.916 139.372 15.356 136.6 17.012 133.144C18.668 129.616 20.288 125.98 21.872 122.236C23.24 119.068 26.084 117.484 30.404 117.484C32.42 117.484 33.824 117.664 34.616 118.024C35.408 118.384 35.804 118.96 35.804 119.752C35.804 120.184 35.66 120.868 35.372 121.804C35.084 122.74 34.688 123.676 34.184 124.612C32.888 127.204 32.24 129.4 32.24 131.2C32.24 132.28 32.6 133.468 33.32 134.764C34.112 136.06 35.3 137.68 36.884 139.624C39.188 142.648 40.916 145.24 42.068 147.4C43.292 149.488 43.904 151.792 43.904 154.312C43.904 155.032 43.832 156.04 43.688 157.336C47.216 155.968 51.356 152.332 56.108 146.428C56.972 145.42 57.944 144.916 59.024 144.916C59.96 144.916 60.68 145.348 61.184 146.212C61.76 147.076 62.048 148.264 62.048 149.776C62.048 152.512 61.364 154.744 59.996 156.472C56.396 160.936 52.94 163.996 49.628 165.652C46.388 167.236 42.356 168.1 37.532 168.244C34.652 170.692 31.232 171.916 27.272 171.916ZM64.2898 169.54C61.0498 169.54 58.3858 168.064 56.2978 165.112C54.2818 162.088 53.2738 158.344 53.2738 153.88C53.2738 148.48 53.6338 143.548 54.3538 139.084C55.0738 134.548 56.2618 129.76 57.9178 124.72C58.6378 122.56 59.6458 121.012 60.9418 120.076C62.2378 119.14 64.2898 118.672 67.0978 118.672C68.6818 118.672 69.7618 118.924 70.3378 119.428C70.9858 119.932 71.3098 120.688 71.3098 121.696C71.3098 122.272 70.9138 124.216 70.1218 127.528C69.4018 130.192 68.8258 132.604 68.3938 134.764C66.9538 142.324 66.2338 147.364 66.2338 149.884C66.2338 151.396 66.4138 152.476 66.7738 153.124C67.1338 153.7 67.7098 153.988 68.5018 153.988C69.5818 153.988 70.9138 152.908 72.4978 150.748C74.1538 148.588 75.8818 145.312 77.6818 140.92C79.5538 136.528 81.3538 131.128 83.0818 124.72C83.6578 122.56 84.5218 121.012 85.6738 120.076C86.8978 119.14 88.6978 118.672 91.0738 118.672C92.7298 118.672 93.8818 118.888 94.5298 119.32C95.1778 119.68 95.5018 120.4 95.5018 121.48C95.5018 123.28 94.6018 128.212 92.8018 136.276C90.7858 145.492 89.7778 151.18 89.7778 153.34C89.7778 154.708 90.0658 155.788 90.6418 156.58C91.2178 157.3 91.9738 157.66 92.9098 157.66C94.3498 157.66 96.0418 156.796 97.9858 155.068C100.002 153.268 102.666 150.388 105.978 146.428C106.842 145.42 107.814 144.916 108.894 144.916C109.83 144.916 110.55 145.348 111.054 146.212C111.63 147.076 111.918 148.264 111.918 149.776C111.918 152.656 111.234 154.888 109.866 156.472C106.77 160.288 103.422 163.42 99.8218 165.868C96.2938 168.316 92.2618 169.54 87.7258 169.54C84.2698 169.54 81.7138 168.208 80.0578 165.544C78.4738 162.88 77.6818 159.136 77.6818 154.312C76.4578 159.208 74.6218 162.988 72.1738 165.652C69.7258 168.244 67.0978 169.54 64.2898 169.54ZM115.581 169.54C111.477 169.54 108.129 167.92 105.537 164.68C103.017 161.44 101.757 157.192 101.757 151.936C101.757 146.176 103.089 140.74 105.753 135.628C108.417 130.444 111.945 126.304 116.337 123.208C120.801 120.04 125.517 118.456 130.485 118.456C132.069 118.456 133.113 118.78 133.617 119.428C134.193 120.004 134.661 121.084 135.021 122.668C136.389 122.38 137.901 122.236 139.557 122.236C141.285 122.236 142.617 122.668 143.553 123.532C144.489 124.396 144.957 125.62 144.957 127.204C144.957 128.86 144.597 131.74 143.877 135.844C143.085 140.236 142.473 144.448 142.041 148.48C141.609 152.44 141.393 156.904 141.393 161.872C141.393 164.608 140.817 166.588 139.665 167.812C138.585 168.964 136.785 169.54 134.265 169.54C131.817 169.54 129.981 168.964 128.757 167.812C127.605 166.588 127.029 164.644 127.029 161.98L127.137 160.252C124.905 166.444 121.053 169.54 115.581 169.54ZM119.793 158.632C121.809 158.632 123.645 157.228 125.301 154.42C126.957 151.612 128.433 146.608 129.729 139.408L131.781 128.5C128.829 128.572 126.093 129.724 123.573 131.956C121.053 134.116 119.037 136.996 117.525 140.596C116.013 144.196 115.257 148.012 115.257 152.044C115.257 154.204 115.653 155.86 116.445 157.012C117.309 158.092 118.425 158.632 119.793 158.632ZM229.375 144.916C230.311 144.916 231.031 145.348 231.535 146.212C232.111 147.076 232.399 148.264 232.399 149.776C232.399 152.656 231.715 154.888 230.347 156.472C227.683 159.712 223.903 162.7 219.007 165.436C214.183 168.172 208.999 169.54 203.455 169.54C195.895 169.54 190.027 167.488 185.851 163.384C181.675 159.28 179.587 153.664 179.587 146.536C179.587 141.568 180.631 136.96 182.719 132.712C184.807 128.392 187.687 124.972 191.359 122.452C195.103 119.932 199.315 118.672 203.995 118.672C208.171 118.672 211.519 119.932 214.039 122.452C216.559 124.9 217.819 128.248 217.819 132.496C217.819 137.464 216.019 141.748 212.419 145.348C208.891 148.876 202.879 151.684 194.383 153.772C196.183 157.084 199.603 158.74 204.643 158.74C207.883 158.74 211.555 157.624 215.659 155.392C219.835 153.088 223.435 150.1 226.459 146.428C227.323 145.42 228.295 144.916 229.375 144.916ZM202.159 129.256C199.495 129.256 197.227 130.804 195.355 133.9C193.555 136.996 192.655 140.74 192.655 145.132V145.348C196.903 144.34 200.251 142.828 202.699 140.812C205.147 138.796 206.371 136.456 206.371 133.792C206.371 132.424 205.975 131.344 205.183 130.552C204.463 129.688 203.455 129.256 202.159 129.256ZM231.274 169.54C228.538 169.54 226.594 168.1 225.442 165.22C224.362 162.34 223.822 157.732 223.822 151.396C223.822 142.036 225.154 133.144 227.818 124.72C228.466 122.632 229.51 121.12 230.95 120.184C232.462 119.176 234.55 118.672 237.214 118.672C238.654 118.672 239.662 118.852 240.238 119.212C240.814 119.572 241.102 120.256 241.102 121.264C241.102 122.416 240.562 125.008 239.482 129.04C238.762 131.92 238.186 134.44 237.754 136.6C237.322 138.688 236.962 141.316 236.674 144.484C238.618 138.868 240.922 134.116 243.586 130.228C246.322 126.34 249.094 123.46 251.902 121.588C254.782 119.644 257.482 118.672 260.002 118.672C262.522 118.672 264.286 119.248 265.294 120.4C266.374 121.552 266.914 123.316 266.914 125.692C266.914 127.996 266.23 132.172 264.862 138.22C264.286 140.812 263.89 142.756 263.674 144.052C267.274 135.196 271.27 128.752 275.662 124.72C280.054 120.688 284.158 118.672 287.974 118.672C292.654 118.672 294.994 121.012 294.994 125.692C294.994 128.5 294.202 133.576 292.618 140.92C291.25 147.184 290.566 151.324 290.566 153.34C290.566 156.22 291.61 157.66 293.698 157.66C295.138 157.66 296.83 156.796 298.774 155.068C300.79 153.268 303.454 150.388 306.766 146.428C307.63 145.42 308.602 144.916 309.682 144.916C310.618 144.916 311.338 145.348 311.842 146.212C312.418 147.076 312.706 148.264 312.706 149.776C312.706 152.656 312.022 154.888 310.654 156.472C307.558 160.288 304.21 163.42 300.61 165.868C297.082 168.316 293.05 169.54 288.514 169.54C284.842 169.54 282.07 168.496 280.198 166.408C278.326 164.248 277.39 161.152 277.39 157.12C277.39 155.104 277.894 151.504 278.902 146.32C279.838 141.784 280.306 138.652 280.306 136.924C280.306 135.772 279.91 135.196 279.118 135.196C278.182 135.196 276.85 136.42 275.122 138.868C273.394 141.244 271.666 144.412 269.938 148.372C268.21 152.332 266.806 156.508 265.726 160.9C264.934 164.356 263.998 166.66 262.918 167.812C261.91 168.964 260.254 169.54 257.95 169.54C255.574 169.54 253.774 168.424 252.55 166.192C251.398 163.888 250.822 161.116 250.822 157.876C250.822 155.14 251.182 151.18 251.902 145.996C252.478 141.388 252.766 138.364 252.766 136.924C252.766 135.772 252.37 135.196 251.578 135.196C250.498 135.196 249.13 136.492 247.474 139.084C245.818 141.676 244.198 144.988 242.614 149.02C241.102 153.052 239.878 157.012 238.942 160.9C238.15 164.284 237.214 166.588 236.134 167.812C235.126 168.964 233.506 169.54 231.274 169.54ZM361.645 144.916C362.581 144.916 363.301 145.348 363.805 146.212C364.381 147.076 364.669 148.264 364.669 149.776C364.669 152.656 363.985 154.888 362.617 156.472C359.521 160.288 356.173 163.42 352.573 165.868C349.045 168.316 345.013 169.54 340.477 169.54C336.661 169.54 333.565 168.172 331.189 165.436C327.085 168.1 322.801 169.468 318.337 169.54C317.401 183.436 315.277 195.028 311.965 204.316C308.653 213.676 303.793 218.356 297.385 218.356C293.497 218.356 290.617 216.952 288.745 214.144C286.873 211.336 285.937 207.448 285.937 202.48C285.937 195.424 287.557 187.18 290.797 177.748C294.037 168.388 299.041 158.056 305.809 146.752C305.809 136.24 305.737 128.932 305.593 124.828C305.521 122.74 306.349 121.084 308.077 119.86C309.805 118.636 311.965 118.024 314.557 118.024C316.069 118.024 317.149 118.348 317.797 118.996C318.517 119.572 318.913 120.76 318.985 122.56C318.985 124.36 319.021 125.692 319.093 126.556C321.397 123.676 323.665 121.624 325.897 120.4C328.129 119.104 330.505 118.456 333.025 118.456C337.057 118.456 340.333 120.076 342.853 123.316C345.445 126.556 346.741 130.804 346.741 136.06C346.741 139.876 346.129 143.584 344.905 147.184C343.681 150.784 341.989 154.06 339.829 157.012C341.341 157.444 342.601 157.66 343.609 157.66C345.985 157.66 348.253 156.796 350.413 155.068C352.573 153.34 355.345 150.46 358.729 146.428C359.593 145.42 360.565 144.916 361.645 144.916ZM318.877 159.172C321.469 158.596 323.845 157.192 326.005 154.96C328.237 152.656 330.001 149.848 331.297 146.536C332.593 143.152 333.241 139.624 333.241 135.952C333.241 133.792 332.809 132.172 331.945 131.092C331.081 129.94 329.929 129.364 328.489 129.364C325.897 129.364 322.765 132.1 319.093 137.572C319.021 140.74 318.985 145.384 318.985 151.504C318.985 154.816 318.949 157.372 318.877 159.172ZM298.249 207.772C300.193 207.772 301.813 203.524 303.109 195.028C304.405 186.604 305.233 176.092 305.593 163.492C302.497 170.692 300.049 177.568 298.249 184.12C296.449 190.672 295.549 196.18 295.549 200.644C295.549 202.948 295.837 204.712 296.413 205.936C296.917 207.16 297.529 207.772 298.249 207.772ZM363.637 169.54C360.901 169.54 358.957 168.1 357.805 165.22C356.725 162.34 356.185 157.732 356.185 151.396C356.185 142.036 357.517 133.144 360.181 124.72C360.829 122.632 361.873 121.12 363.313 120.184C364.825 119.176 366.913 118.672 369.577 118.672C371.017 118.672 372.025 118.852 372.601 119.212C373.177 119.572 373.465 120.256 373.465 121.264C373.465 122.416 372.925 125.008 371.845 129.04C371.125 131.92 370.549 134.44 370.117 136.6C369.685 138.76 369.325 141.424 369.037 144.592C371.413 138.4 374.077 133.36 377.029 129.472C379.981 125.584 382.861 122.812 385.669 121.156C388.549 119.5 391.177 118.672 393.553 118.672C398.233 118.672 400.573 121.012 400.573 125.692C400.573 126.628 400.249 128.896 399.601 132.496C399.025 135.376 398.737 137.176 398.737 137.896C398.737 140.416 399.637 141.676 401.437 141.676C403.453 141.676 406.045 140.092 409.213 136.924C410.149 135.988 411.121 135.52 412.129 135.52C413.065 135.52 413.785 135.952 414.289 136.816C414.865 137.608 415.153 138.688 415.153 140.056C415.153 142.72 414.433 144.808 412.993 146.32C410.977 148.408 408.601 150.208 405.865 151.72C403.201 153.16 400.357 153.88 397.333 153.88C393.517 153.88 390.601 152.908 388.585 150.964C386.641 149.02 385.669 146.392 385.669 143.08C385.669 142 385.777 140.92 385.993 139.84C386.137 138.4 386.209 137.428 386.209 136.924C386.209 135.772 385.813 135.196 385.021 135.196C383.941 135.196 382.501 136.42 380.701 138.868C378.973 141.244 377.245 144.412 375.517 148.372C373.789 152.332 372.385 156.508 371.305 160.9C370.513 164.284 369.577 166.588 368.497 167.812C367.489 168.964 365.869 169.54 363.637 169.54ZM453.286 144.916C454.222 144.916 454.942 145.348 455.446 146.212C456.022 147.076 456.31 148.264 456.31 149.776C456.31 152.656 455.626 154.888 454.258 156.472C451.594 159.712 447.814 162.7 442.918 165.436C438.094 168.172 432.91 169.54 427.366 169.54C419.806 169.54 413.938 167.488 409.762 163.384C405.586 159.28 403.498 153.664 403.498 146.536C403.498 141.568 404.542 136.96 406.63 132.712C408.718 128.392 411.598 124.972 415.27 122.452C419.014 119.932 423.226 118.672 427.906 118.672C432.082 118.672 435.43 119.932 437.95 122.452C440.47 124.9 441.73 128.248 441.73 132.496C441.73 137.464 439.93 141.748 436.33 145.348C432.802 148.876 426.79 151.684 418.294 153.772C420.094 157.084 423.514 158.74 428.554 158.74C431.794 158.74 435.466 157.624 439.57 155.392C443.746 153.088 447.346 150.1 450.37 146.428C451.234 145.42 452.206 144.916 453.286 144.916ZM426.07 129.256C423.406 129.256 421.138 130.804 419.266 133.9C417.466 136.996 416.566 140.74 416.566 145.132V145.348C420.814 144.34 424.162 142.828 426.61 140.812C429.058 138.796 430.282 136.456 430.282 133.792C430.282 132.424 429.886 131.344 429.094 130.552C428.374 129.688 427.366 129.256 426.07 129.256ZM467.604 171.916C463.86 171.916 460.98 171.052 458.964 169.324C457.02 167.596 456.048 165.652 456.048 163.492C456.048 161.62 456.732 160 458.1 158.632C459.468 157.264 461.484 156.58 464.148 156.58C465.084 156.58 466.164 156.688 467.388 156.904C468.684 157.048 469.656 157.156 470.304 157.228C470.232 155.356 469.8 153.592 469.008 151.936C468.288 150.28 467.352 148.696 466.2 147.184C465.048 145.6 463.968 144.232 462.96 143.08C460.728 147.328 458.496 150.856 456.264 153.664C454.104 156.472 451.728 159.136 449.136 161.656C447.84 162.952 446.472 163.6 445.032 163.6C443.88 163.6 442.944 163.204 442.224 162.412C441.504 161.548 441.144 160.504 441.144 159.28C441.144 157.84 441.648 156.508 442.656 155.284L444.06 153.556C448.02 148.66 451.008 144.628 453.024 141.46C454.248 139.372 455.688 136.6 457.344 133.144C459 129.616 460.62 125.98 462.204 122.236C463.572 119.068 466.416 117.484 470.736 117.484C472.752 117.484 474.156 117.664 474.948 118.024C475.74 118.384 476.136 118.96 476.136 119.752C476.136 120.184 475.992 120.868 475.704 121.804C475.416 122.74 475.02 123.676 474.516 124.612C473.22 127.204 472.572 129.4 472.572 131.2C472.572 132.28 472.932 133.468 473.652 134.764C474.444 136.06 475.632 137.68 477.216 139.624C479.52 142.648 481.248 145.24 482.4 147.4C483.624 149.488 484.236 151.792 484.236 154.312C484.236 155.032 484.164 156.04 484.02 157.336C487.548 155.968 491.688 152.332 496.44 146.428C497.304 145.42 498.276 144.916 499.356 144.916C500.292 144.916 501.012 145.348 501.516 146.212C502.092 147.076 502.38 148.264 502.38 149.776C502.38 152.512 501.696 154.744 500.328 156.472C496.728 160.936 493.272 163.996 489.96 165.652C486.72 167.236 482.688 168.1 477.864 168.244C474.984 170.692 471.564 171.916 467.604 171.916ZM506.026 169.54C501.922 169.54 498.574 167.92 495.982 164.68C493.462 161.44 492.202 157.192 492.202 151.936C492.202 146.176 493.534 140.74 496.198 135.628C498.862 130.444 502.39 126.304 506.782 123.208C511.246 120.04 515.962 118.456 520.93 118.456C522.514 118.456 523.558 118.78 524.062 119.428C524.638 120.004 525.106 121.084 525.466 122.668C526.834 122.38 528.346 122.236 530.002 122.236C531.73 122.236 533.062 122.668 533.998 123.532C534.934 124.396 535.402 125.62 535.402 127.204C535.402 128.86 535.042 131.74 534.322 135.844C533.53 140.236 532.918 144.448 532.486 148.48C532.054 152.44 531.838 156.904 531.838 161.872C531.838 164.608 531.262 166.588 530.11 167.812C529.03 168.964 527.23 169.54 524.71 169.54C522.262 169.54 520.426 168.964 519.202 167.812C518.05 166.588 517.474 164.644 517.474 161.98L517.582 160.252C515.35 166.444 511.498 169.54 506.026 169.54ZM510.238 158.632C512.254 158.632 514.09 157.228 515.746 154.42C517.402 151.612 518.878 146.608 520.174 139.408L522.226 128.5C519.274 128.572 516.538 129.724 514.018 131.956C511.498 134.116 509.482 136.996 507.97 140.596C506.458 144.196 505.702 148.012 505.702 152.044C505.702 154.204 506.098 155.86 506.89 157.012C507.754 158.092 508.87 158.632 510.238 158.632ZM557.276 143.728C555.836 143.728 554.648 143.404 553.712 142.756C552.776 142.108 552.308 141.1 552.308 139.732L552.416 138.868C553.64 130.804 555.296 121.624 557.384 111.328C559.472 101.032 561.416 92.14 563.216 84.652C564.368 80.044 567.5 77.74 572.612 77.74C577.22 77.74 579.524 79.216 579.524 82.168C579.524 82.816 579.416 83.536 579.2 84.328C577.328 91.96 574.844 101.212 571.748 112.084C568.652 122.884 565.7 132.28 562.892 140.272C562.1 142.576 560.228 143.728 557.276 143.728ZM553.172 169.54C550.004 169.54 547.592 168.676 545.936 166.948C544.352 165.22 543.56 162.952 543.56 160.144C543.56 156.904 544.46 154.312 546.26 152.368C548.132 150.424 550.724 149.452 554.036 149.452C557.204 149.452 559.58 150.244 561.164 151.828C562.82 153.34 563.648 155.608 563.648 158.632C563.648 161.944 562.712 164.608 560.84 166.624C558.968 168.568 556.412 169.54 553.172 169.54Z" fill="url(#paint0_linear_1612_508)"/>
<defs>
<linearGradient id="paint0_linear_1612_508" x1="581" y1="81.8531" x2="2" y2="81.8531" gradientUnits="userSpaceOnUse">
<stop stop-color="#49B7D6"/>
<stop offset="1" stop-color="#D6F0F8"/>
</linearGradient>
</defs>
</svg>
