<svg width="576" height="244" viewBox="0 0 576 244" fill="none" xmlns="http://www.w3.org/2000/svg">
<path d="M8.94825 104.59C5.95892 104.59 3.83492 103.017 2.57625 99.87C1.39625 96.7233 0.80625 91.6887 0.80625 84.766C0.80625 74.5393 2.26158 64.824 5.17225 55.62C5.88025 53.3387 7.02092 51.6867 8.59425 50.664C10.2463 49.5627 12.5276 49.012 15.4383 49.012C17.0116 49.012 18.1129 49.2087 18.7423 49.602C19.3716 49.9953 19.6863 50.7427 19.6863 51.844C19.6863 53.1027 19.0963 55.9347 17.9163 60.34C17.1296 63.4867 16.5003 66.24 16.0283 68.6C15.5563 70.8813 15.1629 73.7527 14.8483 77.214C16.9723 71.078 19.4896 65.886 22.4003 61.638C25.3896 57.39 28.4183 54.2433 31.4863 52.198C34.6329 50.074 37.5829 49.012 40.3363 49.012C43.0896 49.012 45.0169 49.6413 46.1183 50.9C47.2983 52.1587 47.8883 54.086 47.8883 56.682C47.8883 59.1993 47.1409 63.762 45.6463 70.37C45.0169 73.202 44.5843 75.326 44.3483 76.742C48.2816 67.066 52.6476 60.0253 57.4463 55.62C62.2449 51.2147 66.7289 49.012 70.8983 49.012C76.0116 49.012 78.5683 51.5687 78.5683 56.682C78.5683 59.75 77.7029 65.296 75.9723 73.32C74.4776 80.164 73.7303 84.6873 73.7303 86.89C73.7303 90.0367 74.8709 91.61 77.1523 91.61C78.7256 91.61 80.5743 90.666 82.6983 88.778C84.9009 86.8113 87.8116 83.6647 91.4303 79.338C92.3743 78.2367 93.4363 77.686 94.6163 77.686C95.6389 77.686 96.4256 78.158 96.9763 79.102C97.6056 80.046 97.9203 81.344 97.9203 82.996C97.9203 86.1427 97.1729 88.5813 95.6783 90.312C92.2956 94.4813 88.6376 97.9033 84.7043 100.578C80.8496 103.253 76.4443 104.59 71.4883 104.59C67.4763 104.59 64.4476 103.449 62.4023 101.168C60.3569 98.808 59.3343 95.4253 59.3343 91.02C59.3343 88.8173 59.8849 84.884 60.9863 79.22C62.0089 74.264 62.5203 70.842 62.5203 68.954C62.5203 67.6953 62.0876 67.066 61.2223 67.066C60.1996 67.066 58.7443 68.4033 56.8563 71.078C54.9683 73.674 53.0803 77.1353 51.1923 81.462C49.3043 85.7887 47.7703 90.3513 46.5903 95.15C45.7249 98.926 44.7023 101.443 43.5223 102.702C42.4209 103.961 40.6116 104.59 38.0943 104.59C35.4983 104.59 33.5316 103.371 32.1943 100.932C30.9356 98.4147 30.3063 95.386 30.3063 91.846C30.3063 88.8567 30.6996 84.53 31.4863 78.866C32.1156 73.8313 32.4303 70.5273 32.4303 68.954C32.4303 67.6953 31.9976 67.066 31.1323 67.066C29.9523 67.066 28.4576 68.482 26.6483 71.314C24.8389 74.146 23.0689 77.7647 21.3383 82.17C19.6863 86.5753 18.3489 90.902 17.3263 95.15C16.4609 98.8473 15.4383 101.365 14.2583 102.702C13.1569 103.961 11.3869 104.59 8.94825 104.59ZM148.559 67.774C149.582 67.774 150.368 68.2853 150.919 69.308C151.47 70.3307 151.745 71.6287 151.745 73.202C151.745 76.978 150.604 79.22 148.323 79.928C143.603 81.58 138.411 82.524 132.747 82.76C131.252 89.368 128.302 94.678 123.897 98.69C119.492 102.623 114.496 104.59 108.911 104.59C104.191 104.59 100.14 103.449 96.7568 101.168C93.4528 98.8867 90.9355 95.858 89.2048 92.082C87.4742 88.306 86.6088 84.2153 86.6088 79.81C86.6088 73.8313 87.7495 68.5213 90.0308 63.88C92.3122 59.16 95.4588 55.502 99.4708 52.906C103.483 50.2313 107.928 48.894 112.805 48.894C118.784 48.894 123.582 50.9787 127.201 55.148C130.898 59.2387 133.062 64.3127 133.691 70.37C137.388 70.134 141.794 69.3473 146.907 68.01C147.536 67.8527 148.087 67.774 148.559 67.774ZM109.855 92.082C112.372 92.082 114.536 91.0593 116.345 89.014C118.233 86.9687 119.492 84.0187 120.121 80.164C117.682 78.512 115.794 76.3487 114.457 73.674C113.198 70.9993 112.569 68.1673 112.569 65.178C112.569 63.9193 112.687 62.6607 112.923 61.402H112.333C109.186 61.402 106.551 62.936 104.427 66.004C102.382 68.9933 101.359 73.2413 101.359 78.748C101.359 83.0747 102.185 86.3787 103.837 88.66C105.568 90.9413 107.574 92.082 109.855 92.082ZM201.179 68.128C201.415 68.0493 201.809 68.01 202.359 68.01C203.539 68.01 204.444 68.4033 205.073 69.19C205.703 69.9767 206.017 71.0387 206.017 72.376C206.017 74.8147 205.545 76.742 204.601 78.158C203.657 79.4953 202.241 80.4787 200.353 81.108C196.735 82.288 192.88 82.878 188.789 82.878C185.328 82.878 182.063 82.406 178.995 81.462C176.714 85.1593 174.197 88.9747 171.443 92.908C168.297 97.392 165.583 100.46 163.301 102.112C161.02 103.764 158.424 104.59 155.513 104.59C152.288 104.59 149.731 103.331 147.843 100.814C146.034 98.2967 144.893 94.324 144.421 88.896C143.477 77.8827 143.005 68.246 143.005 59.986V55.856C143.084 53.26 143.792 51.4507 145.129 50.428C146.467 49.4053 148.473 48.894 151.147 48.894C153.193 48.894 154.687 49.366 155.631 50.31C156.654 51.1753 157.165 52.67 157.165 54.794C157.165 63.8407 157.716 75.6013 158.817 90.076C163.537 83.0747 167.077 77.4893 169.437 73.32C168.257 71.0387 167.667 68.3247 167.667 65.178C167.667 62.5033 168.257 59.9073 169.437 57.39C170.617 54.8727 172.23 52.8273 174.275 51.254C176.321 49.6807 178.641 48.894 181.237 48.894C183.519 48.894 185.367 49.72 186.783 51.372C188.199 52.9453 188.907 55.266 188.907 58.334C188.907 61.874 187.963 65.9253 186.075 70.488C189.065 70.3307 193.037 69.7407 197.993 68.718L201.179 68.128ZM211.235 41.224C207.931 41.224 205.453 40.4767 203.801 38.982C202.149 37.4087 201.323 35.2453 201.323 32.492C201.323 29.7387 202.385 27.4573 204.509 25.648C206.712 23.76 209.426 22.816 212.651 22.816C215.562 22.816 217.922 23.524 219.731 24.94C221.541 26.356 222.445 28.362 222.445 30.958C222.445 34.1047 221.423 36.622 219.377 38.51C217.332 40.3193 214.618 41.224 211.235 41.224ZM210.291 104.59C205.178 104.59 201.441 102.781 199.081 99.162C196.8 95.5433 195.659 90.7447 195.659 84.766C195.659 81.226 196.092 76.7027 196.957 71.196C197.901 65.6107 199.081 60.4187 200.497 55.62C201.205 53.1027 202.149 51.372 203.329 50.428C204.509 49.484 206.397 49.012 208.993 49.012C213.005 49.012 215.011 50.3493 215.011 53.024C215.011 54.9907 214.264 59.5533 212.769 66.712C210.881 75.3653 209.937 81.226 209.937 84.294C209.937 86.654 210.252 88.4633 210.881 89.722C211.511 90.9807 212.573 91.61 214.067 91.61C215.483 91.61 217.253 90.6267 219.377 88.66C221.501 86.6933 224.333 83.586 227.873 79.338C228.817 78.2367 229.879 77.686 231.059 77.686C232.082 77.686 232.869 78.158 233.419 79.102C234.049 80.046 234.363 81.344 234.363 82.996C234.363 86.1427 233.616 88.5813 232.121 90.312C224.333 99.8307 217.057 104.59 210.291 104.59ZM233.194 104.59C230.205 104.59 228.081 103.017 226.822 99.87C225.642 96.7233 225.052 91.6887 225.052 84.766C225.052 74.5393 226.508 64.824 229.418 55.62C230.126 53.3387 231.267 51.6867 232.84 50.664C234.492 49.5627 236.774 49.012 239.684 49.012C241.258 49.012 242.359 49.2087 242.988 49.602C243.618 49.9953 243.932 50.7427 243.932 51.844C243.932 53.1027 243.342 55.9347 242.162 60.34C241.376 63.4867 240.746 66.24 240.274 68.6C239.802 70.8813 239.409 73.7527 239.094 77.214C241.218 71.078 243.736 65.886 246.646 61.638C249.636 57.39 252.664 54.2433 255.732 52.198C258.879 50.074 261.829 49.012 264.582 49.012C267.336 49.012 269.263 49.6413 270.364 50.9C271.544 52.1587 272.134 54.086 272.134 56.682C272.134 59.1993 271.387 63.762 269.892 70.37C269.263 73.202 268.83 75.326 268.594 76.742C272.528 67.066 276.894 60.0253 281.692 55.62C286.491 51.2147 290.975 49.012 295.144 49.012C300.258 49.012 302.814 51.5687 302.814 56.682C302.814 59.75 301.949 65.296 300.218 73.32C298.724 80.164 297.976 84.6873 297.976 86.89C297.976 90.0367 299.117 91.61 301.398 91.61C302.972 91.61 304.82 90.666 306.944 88.778C309.147 86.8113 312.058 83.6647 315.676 79.338C316.62 78.2367 317.682 77.686 318.862 77.686C319.885 77.686 320.672 78.158 321.222 79.102C321.852 80.046 322.166 81.344 322.166 82.996C322.166 86.1427 321.419 88.5813 319.924 90.312C316.542 94.4813 312.884 97.9033 308.95 100.578C305.096 103.253 300.69 104.59 295.734 104.59C291.722 104.59 288.694 103.449 286.648 101.168C284.603 98.808 283.58 95.4253 283.58 91.02C283.58 88.8173 284.131 84.884 285.232 79.22C286.255 74.264 286.766 70.842 286.766 68.954C286.766 67.6953 286.334 67.066 285.468 67.066C284.446 67.066 282.99 68.4033 281.102 71.078C279.214 73.674 277.326 77.1353 275.438 81.462C273.55 85.7887 272.016 90.3513 270.836 95.15C269.971 98.926 268.948 101.443 267.768 102.702C266.667 103.961 264.858 104.59 262.34 104.59C259.744 104.59 257.778 103.371 256.44 100.932C255.182 98.4147 254.552 95.386 254.552 91.846C254.552 88.8567 254.946 84.53 255.732 78.866C256.362 73.8313 256.676 70.5273 256.676 68.954C256.676 67.6953 256.244 67.066 255.378 67.066C254.198 67.066 252.704 68.482 250.894 71.314C249.085 74.146 247.315 77.7647 245.584 82.17C243.932 86.5753 242.595 90.902 241.572 95.15C240.707 98.8473 239.684 101.365 238.504 102.702C237.403 103.961 235.633 104.59 233.194 104.59ZM365.253 77.686C366.276 77.686 367.062 78.158 367.613 79.102C368.242 80.046 368.557 81.344 368.557 82.996C368.557 86.1427 367.81 88.5813 366.315 90.312C363.404 93.852 359.274 97.1167 353.925 100.106C348.654 103.095 342.99 104.59 336.933 104.59C328.673 104.59 322.262 102.348 317.699 97.864C313.136 93.38 310.855 87.244 310.855 79.456C310.855 74.028 311.996 68.9933 314.277 64.352C316.558 59.632 319.705 55.8953 323.717 53.142C327.808 50.3887 332.41 49.012 337.523 49.012C342.086 49.012 345.744 50.3887 348.497 53.142C351.25 55.8167 352.627 59.4747 352.627 64.116C352.627 69.544 350.66 74.2247 346.727 78.158C342.872 82.0127 336.304 85.0807 327.021 87.362C328.988 90.9807 332.724 92.79 338.231 92.79C341.771 92.79 345.783 91.5707 350.267 89.132C354.83 86.6147 358.763 83.35 362.067 79.338C363.011 78.2367 364.073 77.686 365.253 77.686ZM335.517 60.576C332.606 60.576 330.128 62.2673 328.083 65.65C326.116 69.0327 325.133 73.1233 325.133 77.922V78.158C329.774 77.0567 333.432 75.4047 336.107 73.202C338.782 70.9993 340.119 68.4427 340.119 65.532C340.119 64.0373 339.686 62.8573 338.821 61.992C338.034 61.048 336.933 60.576 335.517 60.576ZM367.327 104.59C364.338 104.59 362.214 103.017 360.955 99.87C359.775 96.7233 359.185 91.6887 359.185 84.766C359.185 74.5393 360.64 64.824 363.551 55.62C364.259 53.3387 365.4 51.6867 366.973 50.664C368.625 49.5627 370.906 49.012 373.817 49.012C375.39 49.012 376.492 49.2087 377.121 49.602C377.75 49.9953 378.065 50.7427 378.065 51.844C378.065 53.1027 377.475 55.9347 376.295 60.34C375.508 63.4867 374.879 66.24 374.407 68.6C373.935 70.96 373.542 73.8707 373.227 77.332C375.823 70.5667 378.734 65.06 381.959 60.812C385.184 56.564 388.331 53.5353 391.399 51.726C394.546 49.9167 397.417 49.012 400.013 49.012C405.126 49.012 407.683 51.5687 407.683 56.682C407.683 59.75 406.818 65.296 405.087 73.32C403.592 80.164 402.845 84.6873 402.845 86.89C402.845 90.0367 403.986 91.61 406.267 91.61C407.84 91.61 409.689 90.666 411.813 88.778C414.016 86.8113 416.926 83.6647 420.545 79.338C421.489 78.2367 422.551 77.686 423.731 77.686C424.754 77.686 425.54 78.158 426.091 79.102C426.72 80.046 427.035 81.344 427.035 82.996C427.035 86.1427 426.288 88.5813 424.793 90.312C421.41 94.4813 417.752 97.9033 413.819 100.578C409.964 103.253 405.559 104.59 400.603 104.59C396.591 104.59 393.562 103.449 391.517 101.168C389.472 98.808 388.449 95.4253 388.449 91.02C388.449 88.8173 389 84.884 390.101 79.22C391.124 74.264 391.635 70.842 391.635 68.954C391.635 67.6953 391.202 67.066 390.337 67.066C389.314 67.066 387.859 68.4033 385.971 71.078C384.162 73.674 382.274 77.1353 380.307 81.462C378.419 85.7887 376.885 90.3513 375.705 95.15C374.84 98.8473 373.817 101.365 372.637 102.702C371.536 103.961 369.766 104.59 367.327 104.59ZM470.116 77.686C471.139 77.686 471.926 78.158 472.476 79.102C473.106 80.046 473.42 81.344 473.42 82.996C473.42 86.1427 472.673 88.5813 471.178 90.312C467.796 94.4813 464.098 97.9033 460.086 100.578C456.074 103.253 451.472 104.59 446.28 104.59C430.232 104.59 422.208 93.3013 422.208 70.724C422.208 67.2627 422.326 63.762 422.562 60.222H417.96C415.6 60.222 413.988 59.7893 413.122 58.924C412.336 58.0587 411.942 56.682 411.942 54.794C411.942 50.3887 413.712 48.186 417.252 48.186H423.978C425.316 39.5327 427.361 31.6267 430.114 24.468C432.868 17.3093 436.172 11.606 440.026 7.35799C443.96 3.11 448.168 0.985997 452.652 0.985997C455.956 0.985997 458.552 2.44133 460.44 5.352C462.328 8.26266 463.272 11.9207 463.272 16.326C463.272 28.5193 458.159 39.1393 447.932 48.186H461.148C462.407 48.186 463.312 48.4613 463.862 49.012C464.413 49.5627 464.688 50.5853 464.688 52.08C464.688 57.508 460.244 60.222 451.354 60.222H436.958C436.801 64.1553 436.722 67.2233 436.722 69.426C436.722 77.6073 437.666 83.35 439.554 86.654C441.521 89.958 444.589 91.61 448.758 91.61C452.141 91.61 455.13 90.5873 457.726 88.542C460.322 86.4967 463.39 83.4287 466.93 79.338C467.874 78.2367 468.936 77.686 470.116 77.686ZM449.466 12.314C448.286 12.314 446.949 13.8087 445.454 16.798C444.038 19.7087 442.662 23.7993 441.324 29.07C440.066 34.262 439.004 40.044 438.138 46.416C442.78 42.404 446.241 37.92 448.522 32.964C450.882 27.9293 452.062 23.3667 452.062 19.276C452.062 14.6347 451.197 12.314 449.466 12.314ZM478.326 104.59C473.449 104.59 469.555 102.82 466.644 99.28C463.734 95.74 462.278 91.0987 462.278 85.356C462.278 79.0627 463.734 73.1233 466.644 67.538C469.555 61.874 473.41 57.3507 478.208 53.968C483.086 50.5067 488.238 48.776 493.666 48.776C495.397 48.776 496.538 49.13 497.088 49.838C497.718 50.4673 498.229 51.6473 498.622 53.378C500.274 53.0633 502.005 52.906 503.814 52.906C507.669 52.906 509.596 54.2827 509.596 57.036C509.596 58.688 509.006 62.6213 507.826 68.836C506.017 77.8827 505.112 84.176 505.112 87.716C505.112 88.896 505.388 89.84 505.938 90.548C506.568 91.256 507.354 91.61 508.298 91.61C509.793 91.61 511.602 90.666 513.726 88.778C515.85 86.8113 518.722 83.6647 522.34 79.338C523.284 78.2367 524.346 77.686 525.526 77.686C526.549 77.686 527.336 78.158 527.886 79.102C528.516 80.046 528.83 81.344 528.83 82.996C528.83 86.1427 528.083 88.5813 526.588 90.312C523.363 94.324 519.941 97.7067 516.322 100.46C512.704 103.213 509.203 104.59 505.82 104.59C503.224 104.59 500.825 103.725 498.622 101.994C496.498 100.185 494.886 97.746 493.784 94.678C489.694 101.286 484.541 104.59 478.326 104.59ZM482.574 92.672C484.305 92.672 485.957 91.6493 487.53 89.604C489.104 87.5587 490.244 84.8447 490.952 81.462L495.318 59.75C492.014 59.8287 488.946 61.0873 486.114 63.526C483.361 65.886 481.158 69.0327 479.506 72.966C477.854 76.8993 477.028 81.0687 477.028 85.474C477.028 87.9127 477.5 89.722 478.444 90.902C479.467 92.082 480.844 92.672 482.574 92.672ZM566.912 65.178C568.643 65.178 570.098 65.8073 571.278 67.066C572.537 68.246 573.166 69.7407 573.166 71.55C573.166 72.5727 572.93 73.674 572.458 74.854C571.2 77.7647 569.43 80.2033 567.148 82.17C564.867 84.1367 562.35 85.12 559.596 85.12C557.394 85.12 555.506 84.3333 553.932 82.76C552.438 81.1867 551.69 79.0627 551.69 76.388C551.69 74.8933 551.769 73.2807 551.926 71.55C552.084 70.2913 552.162 69.426 552.162 68.954C552.162 68.3247 552.005 67.8527 551.69 67.538C551.454 67.2233 551.14 67.066 550.746 67.066C549.645 67.066 548.15 68.4033 546.262 71.078C544.374 73.674 542.486 77.1353 540.598 81.462C538.71 85.7887 537.176 90.3513 535.996 95.15C535.131 98.926 534.148 101.443 533.046 102.702C531.945 103.961 530.136 104.59 527.618 104.59C524.629 104.59 522.505 103.017 521.246 99.87C520.066 96.7233 519.476 91.6887 519.476 84.766C519.476 74.5393 520.932 64.824 523.842 55.62C524.55 53.3387 525.691 51.6867 527.264 50.664C528.916 49.5627 531.198 49.012 534.108 49.012C535.682 49.012 536.783 49.2087 537.412 49.602C538.042 49.9953 538.356 50.7427 538.356 51.844C538.356 53.1027 537.766 55.9347 536.586 60.34C535.8 63.4867 535.17 66.24 534.698 68.6C534.226 70.96 533.833 73.8707 533.518 77.332C536.114 70.5667 539.025 65.06 542.25 60.812C545.476 56.564 548.622 53.5353 551.69 51.726C554.758 49.9167 557.551 49.012 560.068 49.012C562.35 49.012 564.08 49.6807 565.26 51.018C566.519 52.2767 567.148 54.1647 567.148 56.682C567.148 58.1767 566.716 61.0087 565.85 65.178H566.912ZM116.665 193.186C112.574 193.186 109.427 192.242 107.225 190.354C105.101 188.466 104.039 186.342 104.039 183.982C104.039 181.937 104.786 180.167 106.281 178.672C107.775 177.177 109.978 176.43 112.889 176.43C113.911 176.43 115.091 176.548 116.429 176.784C117.845 176.941 118.907 177.059 119.615 177.138C119.536 175.093 119.064 173.165 118.199 171.356C117.412 169.547 116.389 167.816 115.131 166.164C113.872 164.433 112.692 162.939 111.591 161.68C109.152 166.321 106.713 170.176 104.275 173.244C101.915 176.312 99.3187 179.223 96.4867 181.976C95.0707 183.392 93.5761 184.1 92.0027 184.1C90.7441 184.1 89.7214 183.667 88.9347 182.802C88.1481 181.858 87.7547 180.717 87.7547 179.38C87.7547 177.807 88.3054 176.351 89.4067 175.014L90.9407 173.126C95.2674 167.777 98.5321 163.371 100.735 159.91C102.072 157.629 103.645 154.6 105.455 150.824C107.264 146.969 109.034 142.997 110.765 138.906C112.259 135.445 115.367 133.714 120.087 133.714C122.289 133.714 123.823 133.911 124.689 134.304C125.554 134.697 125.987 135.327 125.987 136.192C125.987 136.664 125.829 137.411 125.515 138.434C125.2 139.457 124.767 140.479 124.217 141.502C122.801 144.334 122.093 146.733 122.093 148.7C122.093 149.88 122.486 151.178 123.273 152.594C124.138 154.01 125.436 155.78 127.167 157.904C129.684 161.208 131.572 164.04 132.831 166.4C134.168 168.681 134.837 171.199 134.837 173.952C134.837 174.739 134.758 175.84 134.601 177.256C138.455 175.761 142.979 171.789 148.171 165.338C149.115 164.237 150.177 163.686 151.357 163.686C152.379 163.686 153.166 164.158 153.717 165.102C154.346 166.046 154.661 167.344 154.661 168.996C154.661 171.985 153.913 174.424 152.419 176.312C148.485 181.189 144.709 184.533 141.091 186.342C137.551 188.073 133.145 189.017 127.875 189.174C124.728 191.849 120.991 193.186 116.665 193.186ZM197.702 163.686C198.725 163.686 199.511 164.158 200.062 165.102C200.691 166.046 201.006 167.344 201.006 168.996C201.006 172.143 200.259 174.581 198.764 176.312C195.853 179.852 191.723 183.117 186.374 186.106C181.103 189.095 175.439 190.59 169.382 190.59C161.122 190.59 154.711 188.348 150.148 183.864C145.585 179.38 143.304 173.244 143.304 165.456C143.304 160.028 144.445 154.993 146.726 150.352C149.007 145.632 152.154 141.895 156.166 139.142C160.257 136.389 164.859 135.012 169.972 135.012C174.535 135.012 178.193 136.389 180.946 139.142C183.699 141.817 185.076 145.475 185.076 150.116C185.076 155.544 183.109 160.225 179.176 164.158C175.321 168.013 168.753 171.081 159.47 173.362C161.437 176.981 165.173 178.79 170.68 178.79C174.22 178.79 178.232 177.571 182.716 175.132C187.279 172.615 191.212 169.35 194.516 165.338C195.46 164.237 196.522 163.686 197.702 163.686ZM167.966 146.576C165.055 146.576 162.577 148.267 160.532 151.65C158.565 155.033 157.582 159.123 157.582 163.922V164.158C162.223 163.057 165.881 161.405 168.556 159.202C171.231 156.999 172.568 154.443 172.568 151.532C172.568 150.037 172.135 148.857 171.27 147.992C170.483 147.048 169.382 146.576 167.966 146.576ZM203.67 190.59C199.973 190.59 196.984 189.095 194.702 186.106C192.5 183.038 191.398 178.829 191.398 173.48C191.398 167.58 191.792 162.191 192.578 157.314C193.365 152.358 194.663 147.127 196.472 141.62C197.259 139.26 198.36 137.569 199.776 136.546C201.192 135.523 203.434 135.012 206.502 135.012C208.233 135.012 209.413 135.287 210.042 135.838C210.75 136.389 211.104 137.215 211.104 138.316C211.104 138.945 210.672 141.069 209.806 144.688C209.02 147.599 208.39 150.234 207.918 152.594C206.345 160.854 205.558 166.361 205.558 169.114C205.558 170.766 205.755 171.946 206.148 172.654C206.542 173.283 207.171 173.598 208.036 173.598C209.216 173.598 210.711 172.418 212.52 170.058C214.33 167.619 216.218 164.001 218.184 159.202C220.23 154.325 222.157 148.464 223.966 141.62C224.596 139.26 225.54 137.569 226.798 136.546C228.136 135.523 230.102 135.012 232.698 135.012C234.429 135.012 235.648 135.484 236.356 136.428C237.143 137.293 237.536 138.631 237.536 140.44C237.536 142.407 237.379 144.609 237.064 147.048C236.75 149.408 236.396 151.847 236.002 154.364C235.216 159.399 234.586 164.001 234.114 168.17C233.642 172.261 233.406 176.941 233.406 182.212C233.406 185.201 232.777 187.365 231.518 188.702C230.338 189.961 228.372 190.59 225.618 190.59C222.708 190.59 220.662 189.843 219.482 188.348C218.381 186.775 217.83 183.785 217.83 179.38C217.83 178.515 217.909 176.587 218.066 173.598C216.729 179.105 214.723 183.313 212.048 186.224C209.452 189.135 206.66 190.59 203.67 190.59ZM299.44 190.59C291.731 190.59 285.713 188.427 281.386 184.1C277.138 179.695 275.014 173.913 275.014 166.754C275.014 160.382 276.273 154.797 278.79 149.998C281.308 145.199 284.572 141.502 288.584 138.906C292.596 136.31 296.805 135.012 301.21 135.012C305.537 135.012 308.88 136.31 311.24 138.906C313.679 141.423 314.898 144.688 314.898 148.7C314.898 152.004 314.151 154.797 312.656 157.078C311.24 159.359 309.352 160.5 306.992 160.5C305.498 160.5 304.278 160.146 303.334 159.438C302.469 158.73 302.036 157.747 302.036 156.488C302.036 155.937 302.115 155.308 302.272 154.6C302.43 153.892 302.548 153.381 302.626 153.066C303.02 151.886 303.216 150.785 303.216 149.762C303.216 148.739 302.941 147.953 302.39 147.402C301.918 146.851 301.21 146.576 300.266 146.576C298.457 146.576 296.766 147.402 295.192 149.054C293.619 150.627 292.36 152.791 291.416 155.544C290.472 158.297 290 161.326 290 164.63C290 173.755 293.973 178.318 301.918 178.318C305.144 178.318 308.605 177.256 312.302 175.132C316.078 172.929 319.776 169.665 323.394 165.338C324.338 164.237 325.4 163.686 326.58 163.686C327.603 163.686 328.39 164.158 328.94 165.102C329.57 166.046 329.884 167.344 329.884 168.996C329.884 171.985 329.137 174.424 327.642 176.312C323.945 180.875 319.5 184.415 314.308 186.932C309.195 189.371 304.239 190.59 299.44 190.59ZM380.526 153.774C381.548 153.774 382.335 154.285 382.886 155.308C383.436 156.331 383.712 157.629 383.712 159.202C383.712 162.978 382.571 165.22 380.29 165.928C375.57 167.58 370.378 168.524 364.714 168.76C363.219 175.368 360.269 180.678 355.864 184.69C351.458 188.623 346.463 190.59 340.878 190.59C336.158 190.59 332.106 189.449 328.724 187.168C325.42 184.887 322.902 181.858 321.172 178.082C319.441 174.306 318.576 170.215 318.576 165.81C318.576 159.831 319.716 154.521 321.998 149.88C324.279 145.16 327.426 141.502 331.438 138.906C335.45 136.231 339.894 134.894 344.772 134.894C350.75 134.894 355.549 136.979 359.168 141.148C362.865 145.239 365.028 150.313 365.658 156.37C369.355 156.134 373.76 155.347 378.874 154.01C379.503 153.853 380.054 153.774 380.526 153.774ZM341.822 178.082C344.339 178.082 346.502 177.059 348.312 175.014C350.2 172.969 351.458 170.019 352.088 166.164C349.649 164.512 347.761 162.349 346.424 159.674C345.165 156.999 344.536 154.167 344.536 151.178C344.536 149.919 344.654 148.661 344.89 147.402H344.3C341.153 147.402 338.518 148.936 336.394 152.004C334.348 154.993 333.326 159.241 333.326 164.748C333.326 169.075 334.152 172.379 335.804 174.66C337.534 176.941 339.54 178.082 341.822 178.082ZM381.962 190.59C378.973 190.59 376.849 189.017 375.59 185.87C374.41 182.723 373.82 177.689 373.82 170.766C373.82 160.539 375.275 150.824 378.186 141.62C378.894 139.339 380.035 137.687 381.608 136.664C383.26 135.563 385.541 135.012 388.452 135.012C390.025 135.012 391.127 135.209 391.756 135.602C392.385 135.995 392.7 136.743 392.7 137.844C392.7 139.103 392.11 141.935 390.93 146.34C390.143 149.487 389.514 152.24 389.042 154.6C388.57 156.96 388.177 159.871 387.862 163.332C390.458 156.567 393.369 151.06 396.594 146.812C399.819 142.564 402.966 139.535 406.034 137.726C409.181 135.917 412.052 135.012 414.648 135.012C419.761 135.012 422.318 137.569 422.318 142.682C422.318 143.705 421.964 146.183 421.256 150.116C420.627 153.263 420.312 155.229 420.312 156.016C420.312 158.769 421.295 160.146 423.262 160.146C425.465 160.146 428.297 158.415 431.758 154.954C432.781 153.931 433.843 153.42 434.944 153.42C435.967 153.42 436.753 153.892 437.304 154.836C437.933 155.701 438.248 156.881 438.248 158.376C438.248 161.287 437.461 163.568 435.888 165.22C433.685 167.501 431.089 169.468 428.1 171.12C425.189 172.693 422.082 173.48 418.778 173.48C414.609 173.48 411.423 172.418 409.22 170.294C407.096 168.17 406.034 165.299 406.034 161.68C406.034 160.5 406.152 159.32 406.388 158.14C406.545 156.567 406.624 155.505 406.624 154.954C406.624 153.695 406.191 153.066 405.326 153.066C404.146 153.066 402.573 154.403 400.606 157.078C398.718 159.674 396.83 163.135 394.942 167.462C393.054 171.789 391.52 176.351 390.34 181.15C389.475 184.847 388.452 187.365 387.272 188.702C386.171 189.961 384.401 190.59 381.962 190.59ZM490.295 163.686C491.318 163.686 492.104 164.158 492.655 165.102C493.284 166.046 493.599 167.344 493.599 168.996C493.599 172.143 492.852 174.581 491.357 176.312C487.974 180.481 484.316 183.903 480.383 186.578C476.528 189.253 472.123 190.59 467.167 190.59C462.998 190.59 459.615 189.095 457.019 186.106C452.535 189.017 447.854 190.511 442.977 190.59C441.954 205.773 439.634 218.438 436.015 228.586C432.396 238.813 427.086 243.926 420.085 243.926C415.837 243.926 412.69 242.392 410.645 239.324C408.6 236.256 407.577 232.008 407.577 226.58C407.577 218.871 409.347 209.863 412.887 199.558C416.427 189.331 421.894 178.043 429.289 165.692C429.289 154.207 429.21 146.222 429.053 141.738C428.974 139.457 429.879 137.647 431.767 136.31C433.655 134.973 436.015 134.304 438.847 134.304C440.499 134.304 441.679 134.658 442.387 135.366C443.174 135.995 443.606 137.293 443.685 139.26C443.685 141.227 443.724 142.682 443.803 143.626C446.32 140.479 448.798 138.237 451.237 136.9C453.676 135.484 456.272 134.776 459.025 134.776C463.43 134.776 467.01 136.546 469.763 140.086C472.595 143.626 474.011 148.267 474.011 154.01C474.011 158.179 473.342 162.231 472.005 166.164C470.668 170.097 468.819 173.677 466.459 176.902C468.111 177.374 469.488 177.61 470.589 177.61C473.185 177.61 475.663 176.666 478.023 174.778C480.383 172.89 483.412 169.743 487.109 165.338C488.053 164.237 489.115 163.686 490.295 163.686ZM443.567 179.262C446.399 178.633 448.995 177.099 451.355 174.66C453.794 172.143 455.721 169.075 457.137 165.456C458.553 161.759 459.261 157.904 459.261 153.892C459.261 151.532 458.789 149.762 457.845 148.582C456.901 147.323 455.642 146.694 454.069 146.694C451.237 146.694 447.815 149.683 443.803 155.662C443.724 159.123 443.685 164.197 443.685 170.884C443.685 174.503 443.646 177.295 443.567 179.262ZM421.029 232.362C423.153 232.362 424.923 227.721 426.339 218.438C427.755 209.234 428.66 197.749 429.053 183.982C425.67 191.849 422.996 199.361 421.029 206.52C419.062 213.679 418.079 219.697 418.079 224.574C418.079 227.091 418.394 229.019 419.023 230.356C419.574 231.693 420.242 232.362 421.029 232.362ZM504.036 190.59C499.394 190.59 495.422 189.449 492.118 187.168C488.892 184.808 486.454 181.74 484.802 177.964C483.15 174.188 482.324 170.137 482.324 165.81C482.324 159.831 483.425 154.521 485.628 149.88C487.909 145.16 490.977 141.502 494.832 138.906C498.686 136.231 503.013 134.894 507.812 134.894C512.453 134.894 516.426 136.074 519.73 138.434C523.034 140.715 525.512 143.744 527.164 147.52C528.816 151.296 529.642 155.347 529.642 159.674C529.642 165.653 528.501 171.002 526.22 175.722C523.938 180.363 520.831 184.021 516.898 186.696C513.043 189.292 508.756 190.59 504.036 190.59ZM505.334 177.846C508.008 177.846 510.25 176.391 512.06 173.48C513.948 170.569 514.892 166.321 514.892 160.736C514.892 156.409 514.105 153.145 512.532 150.942C510.958 148.739 509.07 147.638 506.868 147.638C504.036 147.638 501.676 149.093 499.788 152.004C497.978 154.836 497.074 159.084 497.074 164.748C497.074 169.232 497.86 172.536 499.434 174.66C501.007 176.784 502.974 177.846 505.334 177.846ZM550.778 162.388C549.205 162.388 547.907 162.034 546.884 161.326C545.862 160.618 545.35 159.517 545.35 158.022L545.468 157.078C546.806 148.267 548.615 138.237 550.896 126.988C553.178 115.739 555.302 106.023 557.268 97.842C558.527 92.8073 561.949 90.29 567.534 90.29C572.569 90.29 575.086 91.9027 575.086 95.128C575.086 95.836 574.968 96.6227 574.732 97.488C572.687 105.827 569.973 115.935 566.59 127.814C563.208 139.614 559.982 149.88 556.914 158.612C556.049 161.129 554.004 162.388 550.778 162.388ZM546.294 190.59C542.833 190.59 540.198 189.646 538.388 187.758C536.658 185.87 535.792 183.392 535.792 180.324C535.792 176.784 536.776 173.952 538.742 171.828C540.788 169.704 543.62 168.642 547.238 168.642C550.7 168.642 553.296 169.507 555.026 171.238C556.836 172.89 557.74 175.368 557.74 178.672C557.74 182.291 556.718 185.201 554.672 187.404C552.627 189.528 549.834 190.59 546.294 190.59Z" fill="url(#paint0_linear_1612_220)"/>
<defs>
<linearGradient id="paint0_linear_1612_220" x1="572" y1="96.2109" x2="-7" y2="96.2109" gradientUnits="userSpaceOnUse">
<stop stop-color="#49B7D6"/>
<stop offset="1" stop-color="#D6F0F8"/>
</linearGradient>
</defs>
</svg>
