<svg width="559" height="209" viewBox="0 0 559 209" fill="none" xmlns="http://www.w3.org/2000/svg">
<path d="M70.2 71.7C71.0667 71.7 71.7333 72.1 72.2 72.9C72.7333 73.7 73 74.8 73 76.2C73 78.8667 72.3667 80.9333 71.1 82.4C68.2333 85.9333 65.1333 88.8333 61.8 91.1C58.5333 93.3667 54.8 94.5 50.6 94.5C47.0667 94.5 44.2 93.2333 42 90.7C38.2 93.1667 34.2333 94.4333 30.1 94.5C29.2333 107.367 27.2667 118.1 24.2 126.7C21.1333 135.367 16.6333 139.7 10.7 139.7C7.1 139.7 4.43333 138.4 2.7 135.8C0.966666 133.2 0.0999997 129.6 0.0999997 125C0.0999997 118.467 1.6 110.833 4.6 102.1C7.6 93.4333 12.2333 83.8667 18.5 73.4C18.5 63.6667 18.4333 56.9 18.3 53.1C18.2333 51.1667 19 49.6333 20.6 48.5C22.2 47.3667 24.2 46.8 26.6 46.8C28 46.8 29 47.1 29.6 47.7C30.2667 48.2333 30.6333 49.3333 30.7 51C30.7 52.6667 30.7333 53.9 30.8 54.7C32.9333 52.0333 35.0333 50.1333 37.1 49C39.1667 47.8 41.3667 47.2 43.7 47.2C47.4333 47.2 50.4667 48.7 52.8 51.7C55.2 54.7 56.4 58.6333 56.4 63.5C56.4 67.0333 55.8333 70.4667 54.7 73.8C53.5667 77.1333 52 80.1667 50 82.9C51.4 83.3 52.5667 83.5 53.5 83.5C55.7 83.5 57.8 82.7 59.8 81.1C61.8 79.5 64.3667 76.8333 67.5 73.1C68.3 72.1667 69.2 71.7 70.2 71.7ZM30.6 84.9C33 84.3667 35.2 83.0667 37.2 81C39.2667 78.8667 40.9 76.2667 42.1 73.2C43.3 70.0667 43.9 66.8 43.9 63.4C43.9 61.4 43.5 59.9 42.7 58.9C41.9 57.8333 40.8333 57.3 39.5 57.3C37.1 57.3 34.2 59.8333 30.8 64.9C30.7333 67.8333 30.7 72.1333 30.7 77.8C30.7 80.8667 30.6667 83.2333 30.6 84.9ZM11.5 129.9C13.3 129.9 14.8 125.967 16 118.1C17.2 110.3 17.9667 100.567 18.3 88.9C15.4333 95.5667 13.1667 101.933 11.5 108C9.83333 114.067 9 119.167 9 123.3C9 125.433 9.26667 127.067 9.8 128.2C10.2667 129.333 10.8333 129.9 11.5 129.9ZM102.845 71.7C103.711 71.7 104.378 72.1 104.845 72.9C105.378 73.7 105.645 74.8 105.645 76.2C105.645 78.8667 105.011 80.9333 103.745 82.4C100.878 85.9333 97.7445 88.8333 94.3445 91.1C91.0112 93.3667 87.2112 94.5 82.9445 94.5C77.0779 94.5 72.7112 91.8333 69.8445 86.5C67.0445 81.1667 65.6445 74.2667 65.6445 65.8C65.6445 57.6667 66.6779 48.4 68.7445 38C70.8779 27.6 73.9779 18.6667 78.0445 11.2C82.1779 3.73333 87.0779 -5.72205e-06 92.7445 -5.72205e-06C95.9445 -5.72205e-06 98.4445 1.49999 100.245 4.5C102.111 7.43333 103.045 11.6667 103.045 17.2C103.045 25.1333 100.845 34.3333 96.4445 44.8C92.0445 55.2667 86.0779 65.6333 78.5445 75.9C79.0112 78.6333 79.7779 80.6 80.8445 81.8C81.9112 82.9333 83.3112 83.5 85.0445 83.5C87.7779 83.5 90.1779 82.7333 92.2445 81.2C94.3112 79.6 96.9445 76.9 100.145 73.1C100.945 72.1667 101.845 71.7 102.845 71.7ZM90.5445 9.9C89.0112 9.9 87.2779 12.6667 85.3445 18.2C83.4112 23.7333 81.7112 30.6 80.2445 38.8C78.7779 47 77.9779 54.8667 77.8445 62.4C82.5779 54.6 86.3445 46.8 89.1445 39C91.9445 31.1333 93.3445 23.9667 93.3445 17.5C93.3445 12.4333 92.4112 9.9 90.5445 9.9ZM108.885 94.5C104.752 94.5 101.452 93 98.9852 90C96.5185 87 95.2852 83.0667 95.2852 78.2C95.2852 72.8667 96.5185 67.8333 98.9852 63.1C101.452 58.3 104.718 54.4667 108.785 51.6C112.918 48.6667 117.285 47.2 121.885 47.2C123.352 47.2 124.318 47.5 124.785 48.1C125.318 48.6333 125.752 49.6333 126.085 51.1C127.485 50.8333 128.952 50.7 130.485 50.7C133.752 50.7 135.385 51.8667 135.385 54.2C135.385 55.6 134.885 58.9333 133.885 64.2C132.352 71.8667 131.585 77.2 131.585 80.2C131.585 81.2 131.818 82 132.285 82.6C132.818 83.2 133.485 83.5 134.285 83.5C135.552 83.5 137.085 82.7 138.885 81.1C140.685 79.4333 143.118 76.7667 146.185 73.1C146.985 72.1667 147.885 71.7 148.885 71.7C149.752 71.7 150.418 72.1 150.885 72.9C151.418 73.7 151.685 74.8 151.685 76.2C151.685 78.8667 151.052 80.9333 149.785 82.4C147.052 85.8 144.152 88.6667 141.085 91C138.018 93.3333 135.052 94.5 132.185 94.5C129.985 94.5 127.952 93.7667 126.085 92.3C124.285 90.7667 122.918 88.7 121.985 86.1C118.518 91.7 114.152 94.5 108.885 94.5ZM112.485 84.4C113.952 84.4 115.352 83.5333 116.685 81.8C118.018 80.0667 118.985 77.7667 119.585 74.9L123.285 56.5C120.485 56.5667 117.885 57.6333 115.485 59.7C113.152 61.7 111.285 64.3667 109.885 67.7C108.485 71.0333 107.785 74.5667 107.785 78.3C107.785 80.3667 108.185 81.9 108.985 82.9C109.852 83.9 111.018 84.4 112.485 84.4ZM150.658 94.5C148.124 94.5 146.324 93.1667 145.258 90.5C144.258 87.8333 143.758 83.5667 143.758 77.7C143.758 69.0333 144.991 60.8 147.458 53C148.058 51.0667 149.024 49.6667 150.358 48.8C151.758 47.8667 153.691 47.4 156.158 47.4C157.491 47.4 158.424 47.5667 158.958 47.9C159.491 48.2333 159.758 48.8667 159.758 49.8C159.758 50.8667 159.258 53.2667 158.258 57C157.591 59.6667 157.058 62 156.658 64C156.258 66 155.924 68.4667 155.658 71.4C157.858 65.6667 160.324 61 163.058 57.4C165.791 53.8 168.458 51.2333 171.058 49.7C173.724 48.1667 176.158 47.4 178.358 47.4C182.691 47.4 184.858 49.5667 184.858 53.9C184.858 56.5 184.124 61.2 182.658 68C181.391 73.8 180.758 77.6333 180.758 79.5C180.758 82.1667 181.724 83.5 183.658 83.5C184.991 83.5 186.558 82.7 188.358 81.1C190.224 79.4333 192.691 76.7667 195.758 73.1C196.558 72.1667 197.458 71.7 198.458 71.7C199.324 71.7 199.991 72.1 200.458 72.9C200.991 73.7 201.258 74.8 201.258 76.2C201.258 78.8667 200.624 80.9333 199.358 82.4C196.491 85.9333 193.391 88.8333 190.058 91.1C186.791 93.3667 183.058 94.5 178.858 94.5C175.458 94.5 172.891 93.5333 171.158 91.6C169.424 89.6 168.558 86.7333 168.558 83C168.558 81.1333 169.024 77.8 169.958 73C170.824 68.8 171.258 65.9 171.258 64.3C171.258 63.2333 170.891 62.7 170.158 62.7C169.291 62.7 168.058 63.8333 166.458 66.1C164.924 68.3 163.324 71.2333 161.658 74.9C160.058 78.5667 158.758 82.4333 157.758 86.5C157.024 89.6333 156.158 91.7667 155.158 92.9C154.224 93.9667 152.724 94.5 150.658 94.5ZM210.067 94.5C206.134 94.5 202.767 93.5333 199.967 91.6C197.234 89.6 195.167 87 193.767 83.8C192.367 80.6 191.667 77.1667 191.667 73.5C191.667 68.4333 192.601 63.9333 194.467 60C196.401 56 199.001 52.9 202.267 50.7C205.534 48.4333 209.201 47.3 213.267 47.3C217.201 47.3 220.567 48.3 223.367 50.3C226.167 52.2333 228.267 54.8 229.667 58C231.067 61.2 231.767 64.6333 231.767 68.3C231.767 73.3667 230.801 77.9 228.867 81.9C226.934 85.8333 224.301 88.9333 220.967 91.2C217.701 93.4 214.067 94.5 210.067 94.5ZM211.167 83.7C213.434 83.7 215.334 82.4667 216.867 80C218.467 77.5333 219.267 73.9333 219.267 69.2C219.267 65.5333 218.601 62.7667 217.267 60.9C215.934 59.0333 214.334 58.1 212.467 58.1C210.067 58.1 208.067 59.3333 206.467 61.8C204.934 64.2 204.167 67.8 204.167 72.6C204.167 76.4 204.834 79.2 206.167 81C207.501 82.8 209.167 83.7 211.167 83.7ZM256.591 96.7C253.125 96.7 250.458 95.9 248.591 94.3C246.791 92.7 245.891 90.9 245.891 88.9C245.891 87.1667 246.525 85.6667 247.791 84.4C249.058 83.1333 250.925 82.5 253.391 82.5C254.258 82.5 255.258 82.6 256.391 82.8C257.591 82.9333 258.491 83.0333 259.091 83.1C259.025 81.3667 258.625 79.7333 257.891 78.2C257.225 76.6667 256.358 75.2 255.291 73.8C254.225 72.3333 253.225 71.0667 252.291 70C250.225 73.9333 248.158 77.2 246.091 79.8C244.091 82.4 241.891 84.8667 239.491 87.2C238.291 88.4 237.025 89 235.691 89C234.625 89 233.758 88.6333 233.091 87.9C232.425 87.1 232.091 86.1333 232.091 85C232.091 83.6667 232.558 82.4333 233.491 81.3L234.791 79.7C238.458 75.1667 241.225 71.4333 243.091 68.5C244.291 66.5667 245.491 64.2667 246.691 61.6C247.958 58.9333 249.591 55.3 251.591 50.7C252.858 47.7667 255.491 46.3 259.491 46.3C261.358 46.3 262.658 46.4667 263.391 46.8C264.125 47.1333 264.491 47.6667 264.491 48.4C264.491 48.8 264.358 49.4333 264.091 50.3C263.825 51.1667 263.458 52.0333 262.991 52.9C261.791 55.3 261.191 57.3333 261.191 59C261.191 60 261.525 61.1 262.191 62.3C262.925 63.5 264.025 65 265.491 66.8C267.625 69.6 269.225 72 270.291 74C271.425 75.9333 271.991 78.0667 271.991 80.4C271.991 83.2 271.325 85.8667 269.991 88.4C268.725 90.8667 266.925 92.8667 264.591 94.4C262.258 95.9333 259.591 96.7 256.591 96.7Z" fill="url(#paint0_linear_1625_111)"/>
<path d="M90.4 140.7C91.2667 140.7 91.9333 141.1 92.4 141.9C92.9333 142.7 93.2 143.8 93.2 145.2C93.2 147.867 92.5667 149.933 91.3 151.4C88.8333 154.4 85.3333 157.167 80.8 159.7C76.3333 162.233 71.5333 163.5 66.4 163.5C59.4 163.5 53.9667 161.6 50.1 157.8C46.2333 154 44.3 148.8 44.3 142.2C44.3 137.6 45.2667 133.333 47.2 129.4C49.1333 125.4 51.8 122.233 55.2 119.9C58.6667 117.567 62.5667 116.4 66.9 116.4C70.7667 116.4 73.8667 117.567 76.2 119.9C78.5333 122.167 79.7 125.267 79.7 129.2C79.7 133.8 78.0333 137.767 74.7 141.1C71.4333 144.367 65.8667 146.967 58 148.9C59.6667 151.967 62.8333 153.5 67.5 153.5C70.5 153.5 73.9 152.467 77.7 150.4C81.5667 148.267 84.9 145.5 87.7 142.1C88.5 141.167 89.4 140.7 90.4 140.7ZM65.2 126.2C62.7333 126.2 60.6333 127.633 58.9 130.5C57.2333 133.367 56.4 136.833 56.4 140.9V141.1C60.3333 140.167 63.4333 138.767 65.7 136.9C67.9667 135.033 69.1 132.867 69.1 130.4C69.1 129.133 68.7333 128.133 68 127.4C67.3333 126.6 66.4 126.2 65.2 126.2ZM92.1578 163.5C89.6245 163.5 87.8245 162.167 86.7578 159.5C85.7578 156.833 85.2578 152.567 85.2578 146.7C85.2578 138.033 86.4911 129.8 88.9578 122C89.5578 120.067 90.5245 118.667 91.8578 117.8C93.2578 116.867 95.1911 116.4 97.6578 116.4C98.9911 116.4 99.9245 116.567 100.458 116.9C100.991 117.233 101.258 117.867 101.258 118.8C101.258 119.867 100.758 122.267 99.7578 126C99.0911 128.667 98.5578 131 98.1578 133C97.7578 134.933 97.4245 137.367 97.1578 140.3C98.9578 135.1 101.091 130.7 103.558 127.1C106.091 123.5 108.658 120.833 111.258 119.1C113.924 117.3 116.424 116.4 118.758 116.4C121.091 116.4 122.724 116.933 123.658 118C124.658 119.067 125.158 120.7 125.158 122.9C125.158 125.033 124.524 128.9 123.258 134.5C122.724 136.9 122.358 138.7 122.158 139.9C125.491 131.7 129.191 125.733 133.258 122C137.324 118.267 141.124 116.4 144.658 116.4C148.991 116.4 151.158 118.567 151.158 122.9C151.158 125.5 150.424 130.2 148.958 137C147.691 142.8 147.058 146.633 147.058 148.5C147.058 151.167 148.024 152.5 149.958 152.5C151.291 152.5 152.858 151.7 154.658 150.1C156.524 148.433 158.991 145.767 162.058 142.1C162.858 141.167 163.758 140.7 164.758 140.7C165.624 140.7 166.291 141.1 166.758 141.9C167.291 142.7 167.558 143.8 167.558 145.2C167.558 147.867 166.924 149.933 165.658 151.4C162.791 154.933 159.691 157.833 156.358 160.1C153.091 162.367 149.358 163.5 145.158 163.5C141.758 163.5 139.191 162.533 137.458 160.6C135.724 158.6 134.858 155.733 134.858 152C134.858 150.133 135.324 146.8 136.258 142C137.124 137.8 137.558 134.9 137.558 133.3C137.558 132.233 137.191 131.7 136.458 131.7C135.591 131.7 134.358 132.833 132.758 135.1C131.158 137.3 129.558 140.233 127.958 143.9C126.358 147.567 125.058 151.433 124.058 155.5C123.324 158.7 122.458 160.833 121.458 161.9C120.524 162.967 118.991 163.5 116.858 163.5C114.658 163.5 112.991 162.467 111.858 160.4C110.791 158.267 110.258 155.7 110.258 152.7C110.258 150.167 110.591 146.5 111.258 141.7C111.791 137.433 112.058 134.633 112.058 133.3C112.058 132.233 111.691 131.7 110.958 131.7C109.958 131.7 108.691 132.9 107.158 135.3C105.624 137.7 104.124 140.767 102.658 144.5C101.258 148.233 100.124 151.9 99.2578 155.5C98.5245 158.633 97.6578 160.767 96.6578 161.9C95.7245 162.967 94.2245 163.5 92.1578 163.5ZM212.872 140.7C213.739 140.7 214.405 141.1 214.872 141.9C215.405 142.7 215.672 143.8 215.672 145.2C215.672 147.867 215.039 149.933 213.772 151.4C210.905 154.933 207.805 157.833 204.472 160.1C201.205 162.367 197.472 163.5 193.272 163.5C189.739 163.5 186.872 162.233 184.672 159.7C180.872 162.167 176.905 163.433 172.772 163.5C171.905 176.367 169.939 187.1 166.872 195.7C163.805 204.367 159.305 208.7 153.372 208.7C149.772 208.7 147.105 207.4 145.372 204.8C143.639 202.2 142.772 198.6 142.772 194C142.772 187.467 144.272 179.833 147.272 171.1C150.272 162.433 154.905 152.867 161.172 142.4C161.172 132.667 161.105 125.9 160.972 122.1C160.905 120.167 161.672 118.633 163.272 117.5C164.872 116.367 166.872 115.8 169.272 115.8C170.672 115.8 171.672 116.1 172.272 116.7C172.939 117.233 173.305 118.333 173.372 120C173.372 121.667 173.405 122.9 173.472 123.7C175.605 121.033 177.705 119.133 179.772 118C181.839 116.8 184.039 116.2 186.372 116.2C190.105 116.2 193.139 117.7 195.472 120.7C197.872 123.7 199.072 127.633 199.072 132.5C199.072 136.033 198.505 139.467 197.372 142.8C196.239 146.133 194.672 149.167 192.672 151.9C194.072 152.3 195.239 152.5 196.172 152.5C198.372 152.5 200.472 151.7 202.472 150.1C204.472 148.5 207.039 145.833 210.172 142.1C210.972 141.167 211.872 140.7 212.872 140.7ZM173.272 153.9C175.672 153.367 177.872 152.067 179.872 150C181.939 147.867 183.572 145.267 184.772 142.2C185.972 139.067 186.572 135.8 186.572 132.4C186.572 130.4 186.172 128.9 185.372 127.9C184.572 126.833 183.505 126.3 182.172 126.3C179.772 126.3 176.872 128.833 173.472 133.9C173.405 136.833 173.372 141.133 173.372 146.8C173.372 149.867 173.339 152.233 173.272 153.9ZM154.172 198.9C155.972 198.9 157.472 194.967 158.672 187.1C159.872 179.3 160.639 169.567 160.972 157.9C158.105 164.567 155.839 170.933 154.172 177C152.505 183.067 151.672 188.167 151.672 192.3C151.672 194.433 151.939 196.067 152.472 197.2C152.939 198.333 153.505 198.9 154.172 198.9ZM214.716 163.5C212.183 163.5 210.383 162.167 209.316 159.5C208.316 156.833 207.816 152.567 207.816 146.7C207.816 138.033 209.05 129.8 211.516 122C212.116 120.067 213.083 118.667 214.416 117.8C215.816 116.867 217.75 116.4 220.216 116.4C221.55 116.4 222.483 116.567 223.016 116.9C223.55 117.233 223.816 117.867 223.816 118.8C223.816 119.867 223.316 122.267 222.316 126C221.65 128.667 221.116 131 220.716 133C220.316 135 219.983 137.467 219.716 140.4C221.916 134.667 224.383 130 227.116 126.4C229.85 122.8 232.516 120.233 235.116 118.7C237.783 117.167 240.216 116.4 242.416 116.4C246.75 116.4 248.916 118.567 248.916 122.9C248.916 123.767 248.616 125.867 248.016 129.2C247.483 131.867 247.216 133.533 247.216 134.2C247.216 136.533 248.05 137.7 249.716 137.7C251.583 137.7 253.983 136.233 256.916 133.3C257.783 132.433 258.683 132 259.616 132C260.483 132 261.15 132.4 261.616 133.2C262.15 133.933 262.416 134.933 262.416 136.2C262.416 138.667 261.75 140.6 260.416 142C258.55 143.933 256.35 145.6 253.816 147C251.35 148.333 248.716 149 245.916 149C242.383 149 239.683 148.1 237.816 146.3C236.016 144.5 235.116 142.067 235.116 139C235.116 138 235.216 137 235.416 136C235.55 134.667 235.616 133.767 235.616 133.3C235.616 132.233 235.25 131.7 234.516 131.7C233.516 131.7 232.183 132.833 230.516 135.1C228.916 137.3 227.316 140.233 225.716 143.9C224.116 147.567 222.816 151.433 221.816 155.5C221.083 158.633 220.216 160.767 219.216 161.9C218.283 162.967 216.783 163.5 214.716 163.5ZM297.724 140.7C298.591 140.7 299.258 141.1 299.724 141.9C300.258 142.7 300.524 143.8 300.524 145.2C300.524 147.867 299.891 149.933 298.624 151.4C296.158 154.4 292.658 157.167 288.124 159.7C283.658 162.233 278.858 163.5 273.724 163.5C266.724 163.5 261.291 161.6 257.424 157.8C253.558 154 251.624 148.8 251.624 142.2C251.624 137.6 252.591 133.333 254.524 129.4C256.458 125.4 259.124 122.233 262.524 119.9C265.991 117.567 269.891 116.4 274.224 116.4C278.091 116.4 281.191 117.567 283.524 119.9C285.858 122.167 287.024 125.267 287.024 129.2C287.024 133.8 285.358 137.767 282.024 141.1C278.758 144.367 273.191 146.967 265.324 148.9C266.991 151.967 270.158 153.5 274.824 153.5C277.824 153.5 281.224 152.467 285.024 150.4C288.891 148.267 292.224 145.5 295.024 142.1C295.824 141.167 296.724 140.7 297.724 140.7ZM272.524 126.2C270.058 126.2 267.958 127.633 266.224 130.5C264.558 133.367 263.724 136.833 263.724 140.9V141.1C267.658 140.167 270.758 138.767 273.024 136.9C275.291 135.033 276.424 132.867 276.424 130.4C276.424 129.133 276.058 128.133 275.324 127.4C274.658 126.6 273.724 126.2 272.524 126.2ZM310.982 165.7C307.515 165.7 304.849 164.9 302.982 163.3C301.182 161.7 300.282 159.9 300.282 157.9C300.282 156.167 300.915 154.667 302.182 153.4C303.449 152.133 305.315 151.5 307.782 151.5C308.649 151.5 309.649 151.6 310.782 151.8C311.982 151.933 312.882 152.033 313.482 152.1C313.415 150.367 313.015 148.733 312.282 147.2C311.615 145.667 310.749 144.2 309.682 142.8C308.615 141.333 307.615 140.067 306.682 139C304.615 142.933 302.549 146.2 300.482 148.8C298.482 151.4 296.282 153.867 293.882 156.2C292.682 157.4 291.415 158 290.082 158C289.015 158 288.149 157.633 287.482 156.9C286.815 156.1 286.482 155.133 286.482 154C286.482 152.667 286.949 151.433 287.882 150.3L289.182 148.7C292.849 144.167 295.615 140.433 297.482 137.5C298.615 135.567 299.949 133 301.482 129.8C303.015 126.533 304.515 123.167 305.982 119.7C307.249 116.767 309.882 115.3 313.882 115.3C315.749 115.3 317.049 115.467 317.782 115.8C318.515 116.133 318.882 116.667 318.882 117.4C318.882 117.8 318.749 118.433 318.482 119.3C318.215 120.167 317.849 121.033 317.382 121.9C316.182 124.3 315.582 126.333 315.582 128C315.582 129 315.915 130.1 316.582 131.3C317.315 132.5 318.415 134 319.882 135.8C322.015 138.6 323.615 141 324.682 143C325.815 144.933 326.382 147.067 326.382 149.4C326.382 150.067 326.315 151 326.182 152.2C329.449 150.933 333.282 147.567 337.682 142.1C338.482 141.167 339.382 140.7 340.382 140.7C341.249 140.7 341.915 141.1 342.382 141.9C342.915 142.7 343.182 143.8 343.182 145.2C343.182 147.733 342.549 149.8 341.282 151.4C337.949 155.533 334.749 158.367 331.682 159.9C328.682 161.367 324.949 162.167 320.482 162.3C317.815 164.567 314.649 165.7 310.982 165.7ZM347.358 163.5C343.224 163.5 339.924 162 337.458 159C334.991 156 333.758 152.067 333.758 147.2C333.758 141.867 334.991 136.833 337.458 132.1C339.924 127.3 343.191 123.467 347.258 120.6C351.391 117.667 355.758 116.2 360.358 116.2C361.824 116.2 362.791 116.5 363.258 117.1C363.791 117.633 364.224 118.633 364.558 120.1C365.958 119.833 367.424 119.7 368.958 119.7C372.224 119.7 373.858 120.867 373.858 123.2C373.858 124.6 373.358 127.933 372.358 133.2C370.824 140.867 370.058 146.2 370.058 149.2C370.058 150.2 370.291 151 370.758 151.6C371.291 152.2 371.958 152.5 372.758 152.5C374.024 152.5 375.558 151.7 377.358 150.1C379.158 148.433 381.591 145.767 384.658 142.1C385.458 141.167 386.358 140.7 387.358 140.7C388.224 140.7 388.891 141.1 389.358 141.9C389.891 142.7 390.158 143.8 390.158 145.2C390.158 147.867 389.524 149.933 388.258 151.4C385.524 154.8 382.624 157.667 379.558 160C376.491 162.333 373.524 163.5 370.658 163.5C368.458 163.5 366.424 162.767 364.558 161.3C362.758 159.767 361.391 157.7 360.458 155.1C356.991 160.7 352.624 163.5 347.358 163.5ZM350.958 153.4C352.424 153.4 353.824 152.533 355.158 150.8C356.491 149.067 357.458 146.767 358.058 143.9L361.758 125.5C358.958 125.567 356.358 126.633 353.958 128.7C351.624 130.7 349.758 133.367 348.358 136.7C346.958 140.033 346.258 143.567 346.258 147.3C346.258 149.367 346.658 150.9 347.458 151.9C348.324 152.9 349.491 153.4 350.958 153.4ZM389.13 163.5C386.597 163.5 384.797 162.167 383.73 159.5C382.73 156.833 382.23 152.567 382.23 146.7C382.23 138.033 383.464 129.8 385.93 122C386.53 120.067 387.497 118.667 388.83 117.8C390.23 116.867 392.164 116.4 394.63 116.4C395.964 116.4 396.897 116.567 397.43 116.9C397.964 117.233 398.23 117.867 398.23 118.8C398.23 119.867 397.73 122.267 396.73 126C396.064 128.667 395.53 131 395.13 133C394.73 135 394.397 137.467 394.13 140.4C396.33 134.667 398.797 130 401.53 126.4C404.264 122.8 406.93 120.233 409.53 118.7C412.197 117.167 414.63 116.4 416.83 116.4C421.164 116.4 423.33 118.567 423.33 122.9C423.33 123.767 423.03 125.867 422.43 129.2C421.897 131.867 421.63 133.533 421.63 134.2C421.63 136.533 422.464 137.7 424.13 137.7C425.997 137.7 428.397 136.233 431.33 133.3C432.197 132.433 433.097 132 434.03 132C434.897 132 435.564 132.4 436.03 133.2C436.564 133.933 436.83 134.933 436.83 136.2C436.83 138.667 436.164 140.6 434.83 142C432.964 143.933 430.764 145.6 428.23 147C425.764 148.333 423.13 149 420.33 149C416.797 149 414.097 148.1 412.23 146.3C410.43 144.5 409.53 142.067 409.53 139C409.53 138 409.63 137 409.83 136C409.964 134.667 410.03 133.767 410.03 133.3C410.03 132.233 409.664 131.7 408.93 131.7C407.93 131.7 406.597 132.833 404.93 135.1C403.33 137.3 401.73 140.233 400.13 143.9C398.53 147.567 397.23 151.433 396.23 155.5C395.497 158.633 394.63 160.767 393.63 161.9C392.697 162.967 391.197 163.5 389.13 163.5ZM440.638 109.8C437.838 109.8 435.738 109.167 434.338 107.9C432.938 106.567 432.238 104.733 432.238 102.4C432.238 100.067 433.138 98.1333 434.938 96.6C436.805 95 439.105 94.2 441.838 94.2C444.305 94.2 446.305 94.8 447.838 96C449.372 97.2 450.138 98.9 450.138 101.1C450.138 103.767 449.272 105.9 447.538 107.5C445.805 109.033 443.505 109.8 440.638 109.8ZM439.838 163.5C435.505 163.5 432.338 161.967 430.338 158.9C428.405 155.833 427.438 151.767 427.438 146.7C427.438 143.7 427.805 139.867 428.538 135.2C429.338 130.467 430.338 126.067 431.538 122C432.138 119.867 432.938 118.4 433.938 117.6C434.938 116.8 436.538 116.4 438.738 116.4C442.138 116.4 443.838 117.533 443.838 119.8C443.838 121.467 443.205 125.333 441.938 131.4C440.338 138.733 439.538 143.7 439.538 146.3C439.538 148.3 439.805 149.833 440.338 150.9C440.872 151.967 441.772 152.5 443.038 152.5C444.238 152.5 445.738 151.667 447.538 150C449.338 148.333 451.738 145.7 454.738 142.1C455.538 141.167 456.438 140.7 457.438 140.7C458.305 140.7 458.972 141.1 459.438 141.9C459.972 142.7 460.238 143.8 460.238 145.2C460.238 147.867 459.605 149.933 458.338 151.4C451.738 159.467 445.572 163.5 439.838 163.5ZM464.448 163.5C460.314 163.5 457.014 162 454.548 159C452.081 156 450.848 152.067 450.848 147.2C450.848 141.867 452.081 136.833 454.548 132.1C457.014 127.3 460.281 123.467 464.348 120.6C468.481 117.667 472.848 116.2 477.448 116.2C478.914 116.2 479.881 116.5 480.348 117.1C480.881 117.633 481.314 118.633 481.648 120.1C483.048 119.833 484.514 119.7 486.048 119.7C489.314 119.7 490.948 120.867 490.948 123.2C490.948 124.6 490.448 127.933 489.448 133.2C487.914 140.867 487.148 146.2 487.148 149.2C487.148 150.2 487.381 151 487.848 151.6C488.381 152.2 489.048 152.5 489.848 152.5C491.114 152.5 492.648 151.7 494.448 150.1C496.248 148.433 498.681 145.767 501.748 142.1C502.548 141.167 503.448 140.7 504.448 140.7C505.314 140.7 505.981 141.1 506.448 141.9C506.981 142.7 507.248 143.8 507.248 145.2C507.248 147.867 506.614 149.933 505.348 151.4C502.614 154.8 499.714 157.667 496.648 160C493.581 162.333 490.614 163.5 487.748 163.5C485.548 163.5 483.514 162.767 481.648 161.3C479.848 159.767 478.481 157.7 477.548 155.1C474.081 160.7 469.714 163.5 464.448 163.5ZM468.048 153.4C469.514 153.4 470.914 152.533 472.248 150.8C473.581 149.067 474.548 146.767 475.148 143.9L478.848 125.5C476.048 125.567 473.448 126.633 471.048 128.7C468.714 130.7 466.848 133.367 465.448 136.7C464.048 140.033 463.348 143.567 463.348 147.3C463.348 149.367 463.748 150.9 464.548 151.9C465.414 152.9 466.581 153.4 468.048 153.4ZM512.22 109.8C509.42 109.8 507.32 109.167 505.92 107.9C504.52 106.567 503.82 104.733 503.82 102.4C503.82 100.067 504.72 98.1333 506.52 96.6C508.387 95 510.687 94.2 513.42 94.2C515.887 94.2 517.887 94.8 519.42 96C520.954 97.2 521.72 98.9 521.72 101.1C521.72 103.767 520.854 105.9 519.12 107.5C517.387 109.033 515.087 109.8 512.22 109.8ZM511.42 163.5C507.087 163.5 503.92 161.967 501.92 158.9C499.987 155.833 499.02 151.767 499.02 146.7C499.02 143.7 499.387 139.867 500.12 135.2C500.92 130.467 501.92 126.067 503.12 122C503.72 119.867 504.52 118.4 505.52 117.6C506.52 116.8 508.12 116.4 510.32 116.4C513.72 116.4 515.42 117.533 515.42 119.8C515.42 121.467 514.787 125.333 513.52 131.4C511.92 138.733 511.12 143.7 511.12 146.3C511.12 148.3 511.387 149.833 511.92 150.9C512.454 151.967 513.354 152.5 514.62 152.5C515.82 152.5 517.32 151.667 519.12 150C520.92 148.333 523.32 145.7 526.32 142.1C527.12 141.167 528.02 140.7 529.02 140.7C529.887 140.7 530.554 141.1 531.02 141.9C531.554 142.7 531.82 143.8 531.82 145.2C531.82 147.867 531.187 149.933 529.92 151.4C523.32 159.467 517.154 163.5 511.42 163.5ZM542.33 165.7C538.863 165.7 536.196 164.9 534.33 163.3C532.53 161.7 531.63 159.9 531.63 157.9C531.63 156.167 532.263 154.667 533.53 153.4C534.796 152.133 536.663 151.5 539.13 151.5C539.996 151.5 540.996 151.6 542.13 151.8C543.33 151.933 544.23 152.033 544.83 152.1C544.763 150.367 544.363 148.733 543.63 147.2C542.963 145.667 542.096 144.2 541.03 142.8C539.963 141.333 538.963 140.067 538.03 139C535.963 142.933 533.896 146.2 531.83 148.8C529.83 151.4 527.63 153.867 525.23 156.2C524.03 157.4 522.763 158 521.43 158C520.363 158 519.496 157.633 518.83 156.9C518.163 156.1 517.83 155.133 517.83 154C517.83 152.667 518.296 151.433 519.23 150.3L520.53 148.7C524.196 144.167 526.963 140.433 528.83 137.5C530.03 135.567 531.23 133.267 532.43 130.6C533.696 127.933 535.33 124.3 537.33 119.7C538.596 116.767 541.23 115.3 545.23 115.3C547.096 115.3 548.396 115.467 549.13 115.8C549.863 116.133 550.23 116.667 550.23 117.4C550.23 117.8 550.096 118.433 549.83 119.3C549.563 120.167 549.196 121.033 548.73 121.9C547.53 124.3 546.93 126.333 546.93 128C546.93 129 547.263 130.1 547.93 131.3C548.663 132.5 549.763 134 551.23 135.8C553.363 138.6 554.963 141 556.03 143C557.163 144.933 557.73 147.067 557.73 149.4C557.73 152.2 557.063 154.867 555.73 157.4C554.463 159.867 552.663 161.867 550.33 163.4C547.996 164.933 545.33 165.7 542.33 165.7Z" fill="url(#paint1_linear_1625_111)"/>
<defs>
<linearGradient id="paint0_linear_1625_111" x1="12" y1="51" x2="273" y2="51" gradientUnits="userSpaceOnUse">
<stop stop-color="#FF50A4"/>
<stop offset="0.515625" stop-color="#49B7D6"/>
<stop offset="1" stop-color="#A8CD5A"/>
</linearGradient>
<linearGradient id="paint1_linear_1625_111" x1="41" y1="120" x2="563.5" y2="120" gradientUnits="userSpaceOnUse">
<stop stop-color="#FF50A4"/>
<stop offset="0.515625" stop-color="#49B7D6"/>
<stop offset="1" stop-color="#A8CD5A"/>
</linearGradient>
</defs>
</svg>
