<svg width="209" height="97" viewBox="0 0 209 97" fill="none" xmlns="http://www.w3.org/2000/svg">
<path d="M24.7828 96.7C21.3161 96.7 18.6495 95.9 16.7828 94.3C14.9828 92.7 14.0828 90.9 14.0828 88.9C14.0828 87.1667 14.7161 85.6667 15.9828 84.4C17.2495 83.1333 19.1161 82.5 21.5828 82.5C22.4495 82.5 23.4495 82.6 24.5828 82.8C25.7828 82.9333 26.6828 83.0333 27.2828 83.1C27.2161 81.3667 26.8161 79.7333 26.0828 78.2C25.4161 76.6667 24.5495 75.2 23.4828 73.8C22.4161 72.3333 21.4161 71.0667 20.4828 70C18.4161 73.9333 16.3495 77.2 14.2828 79.8C12.2828 82.4 10.0828 84.8667 7.68281 87.2C6.48281 88.4 5.21615 89 3.88281 89C2.81615 89 1.94948 88.6333 1.28281 87.9C0.616146 87.1 0.282812 86.1333 0.282812 85C0.282812 83.6667 0.749479 82.4333 1.68281 81.3L2.98281 79.7C6.64948 75.1667 9.41615 71.4333 11.2828 68.5C12.4161 66.5667 13.7495 64 15.2828 60.8C16.8161 57.5333 18.3161 54.1667 19.7828 50.7C21.0495 47.7667 23.6828 46.3 27.6828 46.3C29.5495 46.3 30.8495 46.4667 31.5828 46.8C32.3161 47.1333 32.6828 47.6667 32.6828 48.4C32.6828 48.8 32.5495 49.4333 32.2828 50.3C32.0161 51.1667 31.6495 52.0333 31.1828 52.9C29.9828 55.3 29.3828 57.3333 29.3828 59C29.3828 60 29.7161 61.1 30.3828 62.3C31.1161 63.5 32.2161 65 33.6828 66.8C35.8161 69.6 37.4161 72 38.4828 74C39.6161 75.9333 40.1828 78.0667 40.1828 80.4C40.1828 81.0667 40.1161 82 39.9828 83.2C43.2495 81.9333 47.0828 78.5667 51.4828 73.1C52.2828 72.1667 53.1828 71.7 54.1828 71.7C55.0495 71.7 55.7161 72.1 56.1828 72.9C56.7162 73.7 56.9828 74.8 56.9828 76.2C56.9828 78.7333 56.3495 80.8 55.0828 82.4C51.7495 86.5333 48.5495 89.3667 45.4828 90.9C42.4828 92.3667 38.7495 93.1667 34.2828 93.3C31.6161 95.5667 28.4495 96.7 24.7828 96.7ZM61.1586 94.5C57.0253 94.5 53.7253 93 51.2586 90C48.7919 87 47.5586 83.0667 47.5586 78.2C47.5586 72.8667 48.7919 67.8333 51.2586 63.1C53.7253 58.3 56.9919 54.4667 61.0586 51.6C65.1919 48.6667 69.5586 47.2 74.1586 47.2C75.6253 47.2 76.5919 47.5 77.0586 48.1C77.5919 48.6333 78.0253 49.6333 78.3586 51.1C79.7586 50.8333 81.2253 50.7 82.7586 50.7C86.0253 50.7 87.6586 51.8667 87.6586 54.2C87.6586 55.6 87.1586 58.9333 86.1586 64.2C84.6253 71.8667 83.8586 77.2 83.8586 80.2C83.8586 81.2 84.0919 82 84.5586 82.6C85.0919 83.2 85.7586 83.5 86.5586 83.5C87.8253 83.5 89.3586 82.7 91.1586 81.1C92.9586 79.4333 95.3919 76.7667 98.4586 73.1C99.2586 72.1667 100.159 71.7 101.159 71.7C102.025 71.7 102.692 72.1 103.159 72.9C103.692 73.7 103.959 74.8 103.959 76.2C103.959 78.8667 103.325 80.9333 102.059 82.4C99.3253 85.8 96.4253 88.6667 93.3586 91C90.2919 93.3333 87.3253 94.5 84.4586 94.5C82.2586 94.5 80.2253 93.7667 78.3586 92.3C76.5586 90.7667 75.1919 88.7 74.2586 86.1C70.7919 91.7 66.4253 94.5 61.1586 94.5ZM64.7586 84.4C66.2253 84.4 67.6253 83.5333 68.9586 81.8C70.2919 80.0667 71.2586 77.7667 71.8586 74.9L75.5586 56.5C72.7586 56.5667 70.1586 57.6333 67.7586 59.7C65.4253 61.7 63.5586 64.3667 62.1586 67.7C60.7586 71.0333 60.0586 74.5667 60.0586 78.3C60.0586 80.3667 60.4586 81.9 61.2586 82.9C62.1253 83.9 63.2919 84.4 64.7586 84.4ZM133.731 71.7C134.598 71.7 135.265 72.1 135.731 72.9C136.265 73.7 136.531 74.8 136.531 76.2C136.531 78.8667 135.898 80.9333 134.631 82.4C131.765 85.9333 128.631 88.8333 125.231 91.1C121.898 93.3667 118.098 94.5 113.831 94.5C107.965 94.5 103.598 91.8333 100.731 86.5C97.9313 81.1667 96.5313 74.2667 96.5313 65.8C96.5313 57.6667 97.5646 48.4 99.6313 38C101.765 27.6 104.865 18.6667 108.931 11.2C113.065 3.73333 117.965 -5.72205e-06 123.631 -5.72205e-06C126.831 -5.72205e-06 129.331 1.49999 131.131 4.5C132.998 7.43333 133.931 11.6667 133.931 17.2C133.931 25.1333 131.731 34.3333 127.331 44.8C122.931 55.2667 116.965 65.6333 109.431 75.9C109.898 78.6333 110.665 80.6 111.731 81.8C112.798 82.9333 114.198 83.5 115.931 83.5C118.665 83.5 121.065 82.7333 123.131 81.2C125.198 79.6 127.831 76.9 131.031 73.1C131.831 72.1667 132.731 71.7 133.731 71.7ZM121.431 9.9C119.898 9.9 118.165 12.6667 116.231 18.2C114.298 23.7333 112.598 30.6 111.131 38.8C109.665 47 108.865 54.8667 108.731 62.4C113.465 54.6 117.231 46.8 120.031 39C122.831 31.1333 124.231 23.9667 124.231 17.5C124.231 12.4333 123.298 9.9 121.431 9.9ZM139.772 94.5C135.639 94.5 132.339 93 129.872 90C127.405 87 126.172 83.0667 126.172 78.2C126.172 72.8667 127.405 67.8333 129.872 63.1C132.339 58.3 135.605 54.4667 139.672 51.6C143.805 48.6667 148.172 47.2 152.772 47.2C154.239 47.2 155.205 47.5 155.672 48.1C156.205 48.6333 156.639 49.6333 156.972 51.1C158.372 50.8333 159.839 50.7 161.372 50.7C164.639 50.7 166.272 51.8667 166.272 54.2C166.272 55.6 165.772 58.9333 164.772 64.2C163.239 71.8667 162.472 77.2 162.472 80.2C162.472 81.2 162.705 82 163.172 82.6C163.705 83.2 164.372 83.5 165.172 83.5C166.439 83.5 167.972 82.7 169.772 81.1C171.572 79.4333 174.005 76.7667 177.072 73.1C177.872 72.1667 178.772 71.7 179.772 71.7C180.639 71.7 181.305 72.1 181.772 72.9C182.305 73.7 182.572 74.8 182.572 76.2C182.572 78.8667 181.939 80.9333 180.672 82.4C177.939 85.8 175.039 88.6667 171.972 91C168.905 93.3333 165.939 94.5 163.072 94.5C160.872 94.5 158.839 93.7667 156.972 92.3C155.172 90.7667 153.805 88.7 152.872 86.1C149.405 91.7 145.039 94.5 139.772 94.5ZM143.372 84.4C144.839 84.4 146.239 83.5333 147.572 81.8C148.905 80.0667 149.872 77.7667 150.472 74.9L154.172 56.5C151.372 56.5667 148.772 57.6333 146.372 59.7C144.039 61.7 142.172 64.3667 140.772 67.7C139.372 71.0333 138.672 74.5667 138.672 78.3C138.672 80.3667 139.072 81.9 139.872 82.9C140.739 83.9 141.905 84.4 143.372 84.4ZM193.045 96.7C189.578 96.7 186.911 95.9 185.045 94.3C183.245 92.7 182.345 90.9 182.345 88.9C182.345 87.1667 182.978 85.6667 184.245 84.4C185.511 83.1333 187.378 82.5 189.845 82.5C190.711 82.5 191.711 82.6 192.845 82.8C194.045 82.9333 194.945 83.0333 195.545 83.1C195.478 81.3667 195.078 79.7333 194.345 78.2C193.678 76.6667 192.811 75.2 191.745 73.8C190.678 72.3333 189.678 71.0667 188.745 70C186.678 73.9333 184.611 77.2 182.545 79.8C180.545 82.4 178.345 84.8667 175.945 87.2C174.745 88.4 173.478 89 172.145 89C171.078 89 170.211 88.6333 169.545 87.9C168.878 87.1 168.545 86.1333 168.545 85C168.545 83.6667 169.011 82.4333 169.945 81.3L171.245 79.7C174.911 75.1667 177.678 71.4333 179.545 68.5C180.745 66.5667 181.945 64.2667 183.145 61.6C184.411 58.9333 186.045 55.3 188.045 50.7C189.311 47.7667 191.945 46.3 195.945 46.3C197.811 46.3 199.111 46.4667 199.845 46.8C200.578 47.1333 200.945 47.6667 200.945 48.4C200.945 48.8 200.811 49.4333 200.545 50.3C200.278 51.1667 199.911 52.0333 199.445 52.9C198.245 55.3 197.645 57.3333 197.645 59C197.645 60 197.978 61.1 198.645 62.3C199.378 63.5 200.478 65 201.945 66.8C204.078 69.6 205.678 72 206.745 74C207.878 75.9333 208.445 78.0667 208.445 80.4C208.445 83.2 207.778 85.8667 206.445 88.4C205.178 90.8667 203.378 92.8667 201.045 94.4C198.711 95.9333 196.045 96.7 193.045 96.7Z" fill="url(#paint0_linear_1612_469)"/>
<defs>
<linearGradient id="paint0_linear_1612_469" x1="209" y1="51.7155" x2="0.999997" y2="51.7155" gradientUnits="userSpaceOnUse">
<stop offset="0.447278" stop-color="#3F2180"/>
<stop offset="1" stop-color="#DAD0F0"/>
</linearGradient>
</defs>
</svg>
